<?xml version="1.0" encoding="utf-8"?>
<!-- Generator: Adobe Illustrator 22.0.1, SVG Export Plug-In . SVG Version: 6.00 Build 0)  -->
<svg version="1.1" id="Vrstva_1" xmlns="http://www.w3.org/2000/svg" xmlns:xlink="http://www.w3.org/1999/xlink" x="0px" y="0px"
	 viewBox="0 0 595.27557 214.29465" style="enable-background:new 0 0 595.27557 214.29465;" xml:space="preserve">
<style type="text/css">
	.st0{fill:#EC7A1F;}
	.st1{fill:#FFFFFF;}
</style>
<g>
	<path class="st0" d="M485.96124,202.9557H109.31435c-52.69456,0-95.80829-43.11372-95.80829-95.80829V11.33894h472.45517
		c52.69458,0,95.80829,43.11373,95.80829,95.80829v0.00019C581.76953,159.84198,538.65582,202.9557,485.96124,202.9557z"/>
	<g>
		<path class="st1" d="M150.40475,121.29953c0.56461,8.88187,9.44908,13.11113,19.46019,13.11113
			c7.33186,0,13.25484-0.98546,19.03407-2.96153l2.82301,14.52522c-7.05219,2.95889-15.65443,4.37036-24.95976,4.37036
			c-23.40706,0-36.80309-13.53453-36.80309-35.10935c0-17.48409,10.86058-36.80309,34.82962-36.80309
			c22.28056,0,30.73898,17.34293,30.73898,34.4062c0,3.66461-0.42085,6.90844-0.70316,8.46106H150.40475z M175.64682,106.63315
			c0-5.21722-2.25578-13.96058-12.1257-13.96058c-9.02567,0-12.69031,8.3199-13.25491,13.96058H175.64682z"/>
		<path class="st1" d="M200.59685,79.98306h18.61328l0.98547,9.58767h0.4234c2.81775-4.51155,9.72882-11.14028,21.28993-11.14028
			c14.09909,0,24.6748,9.4491,24.6748,29.75353v40.75008h-21.43102v-38.212c0-8.88188-3.10269-14.94604-10.85539-14.94604
			c-5.92561,0-9.44908,4.09069-10.99913,8.0376c-0.56453,1.40887-0.70836,3.38495-0.70836,5.35842v39.76202h-21.43095
			C201.15889,148.93405,200.87659,86.18575,200.59685,79.98306z"/>
		<path class="st1" d="M292.28073,121.29953c0.56461,8.88187,9.44388,13.11113,19.45755,13.11113
			c7.32669,0,13.25229-0.98546,19.03152-2.96153l2.82037,14.52522c-7.047,2.95889-15.65179,4.37036-24.9545,4.37036
			c-23.40451,0-36.80051-13.53453-36.80051-35.10935c0-17.48409,10.86057-36.80309,34.8244-36.80309
			c22.28058,0,30.73636,17.34293,30.73636,34.4062c0,3.66461-0.42084,6.90844-0.70306,8.46106H292.28073z M317.51761,106.63315
			c0-5.21722-2.25842-13.96058-12.1257-13.96058c-9.02048,0-12.68768,8.3199-13.25491,13.96058H317.51761z"/>
		<rect x="389.21786" y="80.06985" class="st1" width="21.43367" height="68.95095"/>
		<path class="st1" d="M446.92606,61.37057v18.61329h15.36688V95.7768h-15.36688v24.95449
			c0,8.32254,2.11197,12.13094,8.45844,12.13094c2.96411,0,4.37299-0.14378,6.34641-0.56723l0.14117,16.21376
			c-2.6792,0.99065-7.89645,1.83755-13.81943,1.83755c-6.90845,0-12.68768-2.39952-16.2164-5.92302
			c-3.94434-4.0907-5.92044-10.7168-5.92044-20.44557V95.7768h-9.16412V79.98386h9.16412V67.14984L446.92606,61.37057z"/>
		<path class="st1" d="M418.00348,52.0668c0,10.07122-8.1683,18.23953-18.23956,18.23953
			c-10.06854,0-18.23685-8.16831-18.23685-18.23953c0-10.07378,8.1683-18.23949,18.23685-18.23949
			C409.83517,33.8273,418.00348,41.99302,418.00348,52.0668"/>
		<path class="st1" d="M368.99731,76.45956c0-5.72694,2.13287-10.53644,7.06-11.87998
			c-2.49881-3.91556-3.95212-8.563-3.95212-13.55285c0-1.22329,0.08887-2.42564,0.25613-3.60187
			c-5.53091,0.52536-11.43564,2.4962-16.0517,6.7568c-6.06415,5.63808-8.60486,14.8023-8.60486,23.1248v2.6766h-9.16415v15.79295
			h9.16415v53.158h21.43628v-53.158h13.67569V79.98306h-13.81943V76.45956z"/>
		<path class="st1" d="M104.48851,145.13974c-2.4126-4.35992-3.42422-8.40355-6.06154-12.12045
			c-2.49891-3.52086-5.26433-6.57121-7.83112-10.1078c-0.59603,10.44498-2.1512,19.9333-6.21836,26.90444
			c8.72501-0.31888,15.6857-1.39839,21.20617-3.14967C105.11055,146.14346,104.72375,145.56581,104.48851,145.13974"/>
		<path class="st1" d="M107.11258,97.75127v-0.28226c10.71675-4.0907,15.65172-11.84341,15.65172-20.16331
			c0-8.74335-4.65266-15.22835-11.28136-18.75444c-7.047-4.08806-15.08464-5.35842-28.19836-5.35842
			c-10.85794,0-22.13938,0.98805-27.77742,1.97084v47.02332c3.12095-3.66724,6.11905-7.14627,8.0611-11.35458
			c2.7446-5.94914,3.72998-12.89679,5.68519-15.28323c1.95249-2.38907,6.20001-5.96481,9.33931-6.05894
			c3.13921-0.09409,6.32294,1.19976,8.01929,1.89507c3.79268,2.76805,11.63952-2.34464,14.33961,2.52499
			c-2.07797,3.10523-7.07308,2.68442-9.09362,5.3035c-1.03508,1.34354-3.07644,6.84307-2.52492,10.35871
			c0.40514,2.57465,0.15156,5.38718,2.7785,11.86953c2.62431,6.48499,3.12095,6.13473,5.05254,8.84008
			c5.76624,8.08204,12.78181,14.96694,13.63916,27.53437c0.13066,1.91338,0.05751,4.83824-0.53062,7.05481
			c2.25051-1.0377,4.19782-2.22438,5.86292-3.55225c5.92298-4.79118,9.87248-11.56107,9.87248-20.30183
			C126.00809,108.88893,117.97052,100.56902,107.11258,97.75127"/>
		<path class="st1" d="M491.01218,80.12656l10.31424,34.05861c1.13184,3.95736,2.5459,9.18507,3.39282,12.86277h0.56458
			c0.84946-3.81622,1.97867-8.90541,2.96933-13.00133l8.62051-33.92005h22.89478l-16.11182,45.50728
			c-9.89081,27.55791-16.53525,38.43942-24.30884,45.36612c-7.35022,6.50067-15.26239,8.90282-20.63385,9.46738l-4.66312-18.09048
			c2.68701-0.56459,6.07727-1.83495,9.32889-3.67245c3.24905-1.69641,6.9267-5.23035,8.9028-8.62315
			c0.70834-1.12917,1.13174-2.25836,1.13174-3.10786c0-0.84691-0.14108-1.83755-0.84946-3.53131L467.1293,80.12656H491.01218z"/>
	</g>
</g>
</svg>
