<svg width="83" height="83" viewBox="0 0 83 83" fill="none" xmlns="http://www.w3.org/2000/svg">
<path d="M34.9165 20.9775C35.0595 20.6557 35.2741 20.4054 35.5601 20.2266C35.8819 20.0121 36.2216 19.9048 36.5792 19.9048C37.0798 19.9048 37.491 20.0836 37.8128 20.4412C38.1704 20.7987 38.3492 21.2099 38.3492 21.6748C38.3492 21.8178 38.3134 22.0323 38.2419 22.3184L28.9629 45.7571H41.3527C41.8533 45.7571 42.2645 45.9359 42.5864 46.2935C42.9439 46.6153 43.1227 47.0265 43.1227 47.5271V58.6296C43.1227 59.1302 42.9439 59.5414 42.5864 59.8633C42.2645 60.2208 41.8533 60.3996 41.3527 60.3996C40.8521 60.3996 40.4231 60.2208 40.0655 59.8633C39.7079 59.5057 39.5291 59.0945 39.5291 58.6296V49.3507H26.4421C25.9415 49.3507 25.4945 49.1898 25.1012 48.868C24.7436 48.5104 24.5648 48.0992 24.5648 47.6344C24.5648 47.3841 24.6185 47.1338 24.7257 46.8835L34.9165 20.9775ZM41.3527 38.3554C41.8533 38.3554 42.2645 38.5342 42.5864 38.8918C42.9439 39.2136 43.1227 39.6248 43.1227 40.1254C43.1227 40.626 42.9439 41.0551 42.5864 41.4126C42.2645 41.7702 41.8533 41.949 41.3527 41.949H37.0083C36.5077 41.949 36.0786 41.7702 35.721 41.4126C35.3634 41.0551 35.1847 40.626 35.1847 40.1254C35.1847 39.8393 35.2562 39.6069 35.3992 39.4281L42.64 20.9775C42.783 20.6557 42.9976 20.4054 43.2836 20.2266C43.6054 20.0121 43.963 19.9048 44.3563 19.9048C44.8569 19.9048 45.2681 20.0836 45.59 20.4412C45.9475 20.7987 46.1263 21.2099 46.1263 21.6748C46.1263 21.8893 46.0727 22.1039 45.9654 22.3184L39.6364 38.3554H41.3527ZM53.3135 38.3554C53.8141 38.3554 54.2253 38.5342 54.5471 38.8918C54.9047 39.2136 55.0834 39.6248 55.0834 40.1254C55.0834 40.626 54.9047 41.0551 54.5471 41.4126C54.2253 41.7702 53.8141 41.949 53.3135 41.949H48.4863C47.9857 41.949 47.5566 41.7702 47.199 41.4126C46.8772 41.0551 46.7163 40.626 46.7163 40.1254V33.85C46.7163 33.3494 46.8772 32.9382 47.199 32.6164C47.5566 32.2588 47.9857 32.0801 48.4863 32.0801C48.9869 32.0801 49.416 32.2588 49.7735 32.6164C50.1311 32.9382 50.3099 33.3494 50.3099 33.85V38.3554H53.3135ZM50.3099 58.6296C50.3099 59.0945 50.1311 59.5057 49.7735 59.8633C49.416 60.2208 48.9869 60.3996 48.4863 60.3996C48.0214 60.3996 47.6102 60.2208 47.2527 59.8633C46.8951 59.5414 46.7163 59.1302 46.7163 58.6296V47.5271C46.7163 47.0265 46.8951 46.6153 47.2527 46.2935C47.6102 45.9359 48.0214 45.7571 48.4863 45.7571H53.3135C53.8141 45.7571 54.2253 45.9359 54.5471 46.2935C54.9047 46.6153 55.0834 47.0265 55.0834 47.5271C55.0834 48.0277 54.9047 48.4568 54.5471 48.8143C54.2253 49.1719 53.8141 49.3507 53.3135 49.3507H50.3099V58.6296Z" fill="white"/>
<circle cx="41.2893" cy="41.2893" r="40.2893" stroke="url(#paint0_linear_318_60)" stroke-width="2"/>
<defs>
<linearGradient id="paint0_linear_318_60" x1="10.1027" y1="18.8877" x2="64.5695" y2="82.5786" gradientUnits="userSpaceOnUse">
<stop stop-color="#FDBB34"/>
<stop offset="1" stop-color="#FF6F83"/>
</linearGradient>
</defs>
</svg>
