<svg width="83" height="83" viewBox="0 0 83 83" fill="none" xmlns="http://www.w3.org/2000/svg">
<circle cx="41.2893" cy="41.2893" r="40.2893" stroke="url(#paint0_linear_318_56)" stroke-width="2"/>
<path d="M46.9475 60.9946C46.7044 60.8398 46.5086 60.8991 46.3254 60.8991C42.949 60.8945 39.5726 60.8968 36.195 60.8956C33.4279 60.8945 31.647 59.1003 31.647 56.3094C31.6458 47.1079 31.6435 37.9052 31.655 28.7037C31.655 28.2601 31.5606 27.9504 31.1424 27.7653C30.6367 27.5406 30.1287 27.2949 29.5757 27.5382C29.2451 27.6838 29.2543 28.0179 29.2981 28.3323C29.479 29.6037 29.6483 30.8775 29.8465 32.1465C29.9052 32.5215 29.919 32.8929 29.9098 33.2666C29.866 35.2122 30.0146 37.1612 29.8211 39.1045C29.7439 39.8752 29.5147 40.6052 29.2417 41.3225C28.5424 43.1586 28.2014 45.0576 28.2118 47.0276C28.2256 49.5832 28.2141 52.1377 28.2153 54.6934C28.2153 57.9255 27.1001 60.6884 24.825 62.9681C24.2605 63.534 23.7007 64.1057 23.1374 64.6727C22.5625 65.2513 22.1282 65.3328 21.725 64.9393C21.3092 64.533 21.391 64.0824 21.99 63.4758C22.5775 62.882 23.1673 62.2905 23.7514 61.6932C25.6187 59.7849 26.5622 57.4935 26.5553 54.804C26.5495 52.2309 26.553 49.6577 26.5553 47.0846C26.5564 44.9039 26.9078 42.7848 27.6992 40.7496C28.092 39.7402 28.2913 38.7016 28.2579 37.6118C28.2325 36.791 28.2153 35.9655 28.2602 35.147C28.3823 32.9162 27.9941 30.7342 27.6773 28.5465C27.4273 26.814 28.6841 25.531 30.3971 25.8069C30.571 25.8348 30.7461 25.8616 30.9178 25.9035C31.4047 26.0238 31.6481 25.8213 31.6481 25.2958C31.6481 24.3492 31.6435 23.4014 31.6481 22.4548C31.6631 19.9062 33.4809 18.0514 35.9968 18.0468C40.9999 18.0375 46.0029 18.0433 51.0059 18.0468C51.2351 18.0468 51.4667 18.0573 51.6925 18.0945C53.9181 18.4624 55.3626 20.1588 55.3719 22.4386C55.3822 25.0117 55.3834 27.5848 55.3661 30.1579C55.3626 30.6376 55.4156 30.7366 55.8845 30.4862C57.2669 29.7492 58.9821 30.1579 59.8772 31.3839C60.7919 32.6367 60.6306 34.2155 59.4625 35.4124C58.9038 35.9853 58.3474 36.5604 57.7737 37.117C57.5191 37.3626 57.427 37.4919 57.829 37.7085C58.3785 38.0054 58.807 38.4769 59.1538 38.9997C59.9129 40.1465 59.7275 41.5542 58.7057 42.6137C58.435 42.8943 58.0202 43.1551 57.9626 43.4776C57.9258 43.6837 58.428 43.9841 58.6838 44.246C59.9222 45.514 59.9268 47.1533 58.7011 48.4352C58.4327 48.7158 58.0099 48.9813 57.965 49.2991C57.9338 49.5157 58.4384 49.8068 58.6965 50.0711C59.9129 51.3204 59.9256 52.9644 58.7253 54.2218C58.2714 54.6969 57.8014 55.1579 57.3383 55.6248C56.9155 56.0521 56.4156 56.3607 55.8269 56.4585C55.4894 56.5144 55.3834 56.632 55.3442 56.9871C55.1346 58.8802 53.9353 60.2949 52.2097 60.7513C51.5508 60.9259 50.878 60.9015 50.2076 60.8968C49.976 60.8945 49.7652 60.9003 49.5728 61.0831C47.9082 62.6561 45.8681 63.463 43.7001 64.0079C42.9985 64.1848 42.3004 64.3781 41.6254 64.6471C40.9768 64.9055 40.402 65.2735 39.8859 65.7508C39.462 66.1432 38.9989 66.1304 38.6648 65.7625C38.3307 65.3957 38.3653 64.9393 38.7765 64.5295C39.682 63.6271 40.8017 63.116 41.9998 62.7539C43.3499 62.3452 44.7449 62.0763 46.0317 61.4673C46.3266 61.3276 46.6134 61.1681 46.9463 60.9958L46.9475 60.9946ZM33.307 39.4526C33.307 45.153 33.3047 50.8535 33.3093 56.5539C33.3104 58.0652 34.3921 59.2097 35.8482 59.2121C40.9584 59.2225 46.0674 59.2225 51.1775 59.2121C52.5898 59.2097 53.6808 58.078 53.7188 56.6564C53.728 56.3129 53.6531 56.0777 53.3594 55.8449C51.5139 54.3883 51.6867 52.3252 53.1416 51.0712C53.235 50.9897 53.3087 50.8838 53.4054 50.8081C53.751 50.5356 53.7603 50.3412 53.379 50.0431C52.3226 49.2165 51.7673 48.1593 52.1348 46.7656C52.3307 46.0204 52.8537 45.5012 53.3951 45.0145C53.751 44.6955 53.7476 44.5173 53.3571 44.2076C52.3802 43.4334 51.8203 42.4565 52.0956 41.1304C52.2661 40.3084 52.7914 39.746 53.3617 39.2034C53.554 39.0195 53.7211 38.8471 53.7211 38.5305C53.7107 33.0803 53.7188 27.6302 53.7061 22.1789C53.7038 21.1089 52.9354 20.1588 51.9148 19.8317C51.3953 19.6652 50.8619 19.7548 50.3354 19.7152C50.0359 19.6931 49.8931 19.8282 49.7721 20.082C49.3897 20.8865 48.9738 21.6748 48.5971 22.4816C48.3725 22.9625 48.0338 23.1616 47.5096 23.1581C45.4061 23.1441 43.3015 23.1441 41.198 23.1581C40.6715 23.1616 40.3409 22.9497 40.1174 22.4711C39.7419 21.6631 39.3249 20.8772 38.9436 20.0715C38.8203 19.8107 38.6636 19.7071 38.3734 19.7141C37.6315 19.7339 36.8885 19.7199 36.1454 19.7211C34.3403 19.7222 33.3081 20.755 33.3081 22.5655C33.3081 28.1949 33.3081 33.8232 33.3081 39.4526H33.307ZM55.3143 49.0395C55.6138 49.0465 55.919 48.8846 56.1794 48.6238C56.6425 48.1581 57.1113 47.6982 57.5629 47.222C58.1619 46.591 58.1009 45.9948 57.3844 45.2823C56.7416 44.6419 56.1356 44.6105 55.5366 45.1996C55.0816 45.6467 54.6427 46.1124 54.1853 46.556C53.7729 46.9566 53.5287 47.3978 53.7626 47.9846C53.9895 48.5551 54.6772 49.0418 55.3131 49.0407L55.3143 49.0395ZM57.9557 40.5074C57.9799 39.9567 57.5698 39.6377 57.2116 39.3024C56.722 38.8437 56.1287 38.8425 55.6483 39.3047C55.0862 39.8461 54.5482 40.412 53.9999 40.9673C53.7626 41.2084 53.6381 41.4948 53.6808 41.8371C53.7591 42.4728 54.1899 42.8442 54.7026 43.1062C55.2094 43.3647 55.7082 43.2541 56.1172 42.8617C56.6287 42.3703 57.1217 41.858 57.6159 41.3504C57.8336 41.1269 57.9615 40.8579 57.9546 40.5074H57.9557ZM57.965 52.1564C57.8958 51.4415 57.4212 51.02 56.8568 50.7045C56.3971 50.4483 55.9432 50.5997 55.4836 51.0654C55.0343 51.5195 54.5816 51.9701 54.137 52.4288C53.5287 53.0552 53.5103 53.6478 54.0736 54.2556C54.7348 54.9693 55.4974 55.0683 56.1172 54.4885C56.6344 54.0029 57.1217 53.486 57.6182 52.9784C57.8371 52.7548 57.965 52.4859 57.9661 52.1564H57.965ZM44.3867 19.7211C43.275 19.7211 42.1633 19.7315 41.0517 19.7152C40.6796 19.7094 40.6185 19.8095 40.8029 20.1297C40.9711 20.422 41.1358 20.7224 41.2475 21.0391C41.38 21.4116 41.6185 21.4861 41.9779 21.4815C43.2658 21.4629 44.5652 21.3686 45.8393 21.5059C47.0039 21.6317 47.5868 21.1799 47.9278 20.1332C48.0384 19.7932 48.0419 19.7106 47.6698 19.7164C46.5754 19.7327 45.481 19.7222 44.3878 19.7222L44.3867 19.7211ZM55.3765 37.0867C56.4766 36.0027 57.5295 35.0084 58.5294 33.9605C58.9787 33.4902 58.9038 32.7194 58.4545 32.2572C58.0076 31.7973 57.4443 31.6296 56.8568 31.866C56.1932 32.1337 55.5032 32.6065 55.4179 33.2969C55.267 34.5206 55.3753 35.7769 55.3753 37.0855L55.3765 37.0867Z" fill="white"/>
<defs>
<linearGradient id="paint0_linear_318_56" x1="10.1027" y1="18.8877" x2="64.5695" y2="82.5786" gradientUnits="userSpaceOnUse">
<stop stop-color="#FDBB34"/>
<stop offset="1" stop-color="#FF6F83"/>
</linearGradient>
</defs>
</svg>
