<svg width="83" height="83" viewBox="0 0 83 83" fill="none" xmlns="http://www.w3.org/2000/svg">
<circle cx="41.2893" cy="41.2893" r="40.2893" stroke="url(#paint0_linear_318_53)" stroke-width="2"/>
<path d="M19 51.8864C19.749 51.128 20.4897 50.3626 21.2516 49.6171C21.4641 49.4082 21.5064 49.272 21.2599 49.0677C21.0356 48.8822 20.8337 48.6662 20.6365 48.449C20.3301 48.1109 20.3101 47.7494 20.6247 47.43C21.7858 46.2514 22.955 45.0821 24.1349 43.9223C24.4401 43.6229 24.7958 43.6394 25.121 43.9258C25.3511 44.1289 25.5741 44.3437 25.7725 44.5773C25.9627 44.8016 26.0883 44.7804 26.2902 44.5773C27.5957 43.2543 28.9222 41.95 30.2253 40.6235C30.5259 40.3171 30.844 40.1915 31.2725 40.1926C36.0305 40.2044 40.7885 40.1985 45.5478 40.2008C47.0821 40.2008 48.2208 40.8665 48.8865 42.2623C49.059 42.6239 49.2034 42.4184 49.3713 42.3069C52.622 40.141 55.8715 37.9715 59.1245 35.8079C60.5027 34.8922 62.1815 35.0859 63.2228 36.2669C64.4331 37.6393 64.2089 39.655 62.6839 40.8266C61.2106 41.9594 59.7127 43.0606 58.2253 44.1747C54.5132 46.9581 50.8 49.738 47.0938 52.5285C46.7827 52.7621 46.4717 52.8619 46.0842 52.8596C43.6096 52.8478 41.136 52.8572 38.6613 52.8478C38.3937 52.8478 38.1976 52.9124 38.0086 53.112C37.505 53.6438 36.9932 54.1685 36.4543 54.6616C36.182 54.9105 36.2219 55.0643 36.4719 55.2732C36.6738 55.4411 36.8546 55.636 37.0319 55.8308C37.3583 56.1877 37.3806 56.5481 37.0495 56.8839C35.899 58.052 34.7392 59.2118 33.5711 60.3623C33.2494 60.6793 32.8855 60.6652 32.5509 60.3635C32.3232 60.158 32.1013 59.942 31.9006 59.7108C31.7245 59.5077 31.6059 59.5088 31.4145 59.7072C30.7642 60.3811 30.0927 61.035 29.4317 61.6994C29.2122 61.9201 28.9657 62.0587 28.6452 61.9636C28.1005 61.8027 27.9737 61.1829 28.4081 60.7356C29.0619 60.0641 29.7217 59.3985 30.3979 58.7505C30.6245 58.5345 30.6069 58.4135 30.3932 58.1999C27.8493 55.6712 25.3123 53.1354 22.7848 50.5903C22.5559 50.3602 22.4373 50.3978 22.2354 50.6068C21.6273 51.2395 20.9981 51.8547 20.3759 52.4745C19.8347 53.011 19.4907 52.9946 19 52.4135C19 52.2374 19 52.0625 19 51.8864ZM38.686 41.6049C36.3275 41.6049 33.9702 41.6061 31.6118 41.6025C31.384 41.6025 31.2021 41.6354 31.026 41.8139C29.7816 43.0759 28.5278 44.3285 27.2681 45.574C27.0862 45.7536 27.0486 45.8569 27.2529 46.06C29.818 48.611 32.376 51.1691 34.927 53.733C35.1195 53.9255 35.2264 53.9255 35.413 53.7318C36.0329 53.0885 36.6797 52.4722 37.2996 51.8288C37.5625 51.5553 37.8513 51.4414 38.2317 51.4426C40.7651 51.4544 43.2996 51.4473 45.833 51.4508C46.042 51.4508 46.2239 51.4262 46.4036 51.29C51.5525 47.4195 56.7073 43.5572 61.8563 39.6867C62.6487 39.0915 62.8095 38.1241 62.2801 37.3564C61.76 36.6015 60.7598 36.4113 59.9463 36.9513C56.435 39.2816 52.9307 41.6248 49.423 43.9622C49.2856 44.0538 49.1858 44.1488 49.1424 44.3285C48.6881 46.2314 47.4167 47.2305 45.4609 47.2316C42.6047 47.2316 39.7496 47.2316 36.8934 47.2316C36.7466 47.2316 36.5964 47.2457 36.4555 47.2152C36.101 47.1377 35.8826 46.91 35.8791 46.5414C35.8756 46.1528 36.0974 45.9145 36.4743 45.8405C36.6163 45.8123 36.7666 45.8276 36.9122 45.8276C39.7684 45.8276 42.6234 45.8276 45.4797 45.8252C45.6839 45.8252 45.8929 45.8264 46.0913 45.7877C47.1772 45.5764 47.9086 44.609 47.8135 43.5267C47.7196 42.4537 46.8215 41.6178 45.7145 41.6119C43.3712 41.6014 41.028 41.6084 38.6848 41.6084L38.686 41.6049ZM24.6268 45.439C24.5481 45.5071 24.4812 45.5576 24.4213 45.6175C23.7158 46.3207 23.0196 47.0332 22.3035 47.7247C22.0945 47.9266 22.199 48.0288 22.3469 48.1767C25.8383 51.6645 29.3296 55.1523 32.8139 58.6472C33.0006 58.8338 33.105 58.8573 33.2999 58.6554C33.9702 57.9592 34.6535 57.2748 35.3496 56.6045C35.5539 56.4073 35.5257 56.3016 35.3391 56.1185C34.4703 55.2685 33.6169 54.4033 32.7575 53.544C30.1478 50.9343 27.5382 48.3258 24.9273 45.7172C24.8357 45.6257 24.7383 45.5423 24.6256 45.4378L24.6268 45.439Z" fill="white"/>
<path d="M47.4718 17C48.4063 17.1632 49.3501 17.2583 50.2705 17.5095C56.2577 19.1436 60.5719 24.2926 61.1155 30.4617C61.193 31.3398 61.207 32.2144 61.1096 33.0914C61.0533 33.595 60.7422 33.899 60.3313 33.8462C59.9145 33.7934 59.6692 33.44 59.7138 32.9387C59.9486 30.3173 59.4402 27.8461 58.2217 25.517C55.6437 20.5911 50.0251 17.7032 44.6214 18.525C38.8374 19.4043 34.3529 23.6493 33.3081 29.2279C32.7716 32.0935 33.1097 34.8464 34.3552 37.4843C34.3799 37.5371 34.4057 37.5899 34.4292 37.6428C34.6569 38.1511 34.5536 38.535 34.1404 38.7228C33.7495 38.9001 33.3961 38.7334 33.1613 38.2556C32.7035 37.3211 32.349 36.3479 32.0907 35.3383C30.0269 27.2439 35.3073 18.8842 43.5027 17.2864C44.1178 17.1667 44.7424 17.0939 45.3634 17C46.0666 17 46.7698 17 47.4718 17Z" fill="white"/>
<path d="M58.3685 31.7048C58.3732 32.6229 58.2723 33.4493 58.102 34.2676C57.9577 34.9637 57.663 35.242 57.1864 35.1304C56.7227 35.0213 56.5783 34.6691 56.7156 33.9952C57.3836 30.6941 56.7203 27.6723 54.5591 25.1025C51.7439 21.7556 48.0835 20.5018 43.8444 21.576C39.5501 22.6631 36.9427 25.5486 36.0564 29.8899C35.5058 32.5877 36.0764 35.1222 37.5379 37.4537C37.5849 37.5276 37.6354 37.6004 37.6776 37.6767C37.8995 38.0747 37.8232 38.4645 37.4839 38.6793C37.1423 38.8953 36.7537 38.8073 36.4966 38.4281C35.7148 37.2799 35.156 36.0285 34.8273 34.6808C33.1321 27.7322 37.68 20.982 44.7636 19.9231C51.0959 18.9769 57.2415 23.5024 58.2065 29.8183C58.3063 30.471 58.3791 31.1237 58.3709 31.7048H58.3685Z" fill="white"/>
<path d="M45.7144 29.296C45.7144 28.52 45.7109 27.7452 45.7156 26.9693C45.7191 26.4539 45.9938 26.1393 46.42 26.1416C46.8449 26.144 47.1173 26.4574 47.1185 26.9751C47.1232 28.2042 47.1337 29.4334 47.1114 30.6625C47.1056 31.0029 47.2112 31.0769 47.5294 31.0675C48.2901 31.044 49.0508 31.0558 49.8115 31.0616C50.321 31.0652 50.638 31.3481 50.6309 31.7742C50.6239 32.1863 50.3187 32.461 49.8327 32.4633C48.7209 32.4704 47.608 32.4716 46.4963 32.4633C45.9821 32.4598 45.7215 32.1886 45.7168 31.6674C45.7086 30.8773 45.7144 30.0873 45.7144 29.2972V29.296Z" fill="white"/>
<path d="M47.1206 23.6997C47.1206 23.7878 47.1241 23.8758 47.1206 23.9627C47.1006 24.4334 46.8083 24.7422 46.3974 24.7293C46.0018 24.7164 45.7341 24.4182 45.7177 23.9639C45.7106 23.7737 45.7106 23.5835 45.7177 23.3933C45.7353 22.9214 46.0276 22.6138 46.4397 22.6279C46.8353 22.6408 47.1018 22.9378 47.1206 23.3921C47.1253 23.4943 47.1206 23.5976 47.1206 23.6997Z" fill="white"/>
<path d="M38.3149 32.4656C38.2269 32.4656 38.1389 32.4691 38.052 32.4656C37.5777 32.4456 37.2713 32.1592 37.283 31.7448C37.2936 31.348 37.5894 31.0792 38.0438 31.0616C38.2339 31.0545 38.4241 31.0545 38.6143 31.0616C39.0874 31.078 39.395 31.3691 39.3844 31.7812C39.3739 32.178 39.0768 32.4456 38.6225 32.4656C38.5204 32.4703 38.4171 32.4656 38.3149 32.4656Z" fill="white"/>
<path d="M54.4747 32.4598C54.3433 32.4598 54.2083 32.4774 54.0803 32.4563C53.7011 32.3941 53.4769 32.1675 53.4534 31.7789C53.4311 31.415 53.707 31.1062 54.0885 31.0687C54.321 31.0464 54.5569 31.0534 54.7905 31.0616C55.2437 31.0769 55.5419 31.3493 55.5513 31.7449C55.5618 32.1569 55.2543 32.4457 54.7811 32.4645C54.679 32.468 54.5757 32.4645 54.4736 32.4645C54.4736 32.4622 54.4736 32.461 54.4736 32.4586L54.4747 32.4598Z" fill="white"/>
<path d="M53.6748 26.8365C54.0375 26.8671 54.2653 27.0091 54.3721 27.2944C54.4848 27.5961 54.4261 27.8872 54.1632 28.0774C53.9061 28.2629 53.6231 28.4214 53.3332 28.5505C53.0502 28.6773 52.7849 28.5763 52.5877 28.3486C52.3893 28.1197 52.3247 27.8379 52.4997 27.582C52.792 27.1535 53.2592 26.9833 53.6748 26.8365Z" fill="white"/>
<path d="M53.1792 34.9215C53.5713 35.0741 54.0186 35.2314 54.3109 35.62C54.4952 35.8642 54.4647 36.1565 54.278 36.3983C54.082 36.6531 53.8038 36.767 53.4997 36.6331C53.2074 36.504 52.9233 36.342 52.6674 36.1506C52.4279 35.971 52.3469 35.7034 52.4572 35.404C52.5723 35.0941 52.8036 34.9473 53.1804 34.9215H53.1792Z" fill="white"/>
<path d="M42.1929 23.7632C42.396 23.755 42.578 23.8243 42.7012 23.9781C42.9208 24.2528 43.1133 24.5545 43.2201 24.8879C43.327 25.2201 43.1861 25.5007 42.8891 25.6709C42.5674 25.8552 42.2469 25.7977 42.0251 25.5089C41.8314 25.2565 41.6635 24.9712 41.5449 24.6766C41.3665 24.234 41.7163 23.7691 42.1941 23.7644L42.1929 23.7632Z" fill="white"/>
<path d="M51.3393 24.5226C51.189 24.9276 51.0235 25.3878 50.6068 25.6743C50.3532 25.8492 50.0667 25.7952 49.8343 25.5956C49.603 25.3972 49.5009 25.1307 49.6265 24.8466C49.7556 24.5543 49.9165 24.2691 50.1067 24.0131C50.3004 23.7513 50.5927 23.695 50.8955 23.8159C51.1808 23.9298 51.3193 24.1611 51.3393 24.5238V24.5226Z" fill="white"/>
<path d="M40.4239 27.8614C40.4404 28.3556 39.9426 28.7313 39.4942 28.547C39.2019 28.4272 38.9189 28.2617 38.6665 28.0703C38.3954 27.8649 38.3378 27.5609 38.4857 27.2486C38.6337 26.9363 38.9048 26.7778 39.2347 26.8635C39.6139 26.9621 39.952 27.1758 40.2455 27.4423C40.3664 27.5526 40.4075 27.7146 40.4239 27.8602V27.8614Z" fill="white"/>
<path d="M40.4237 35.6587C40.4026 35.8466 40.3404 36.0473 40.1584 36.1635C39.8907 36.3361 39.6184 36.5099 39.3261 36.6331C39.0044 36.7693 38.7168 36.6449 38.5313 36.3608C38.3329 36.0567 38.3552 35.7315 38.6252 35.4885C38.8941 35.2467 39.2169 35.0565 39.5644 34.9509C39.9835 34.8229 40.4308 35.1986 40.4237 35.6587Z" fill="white"/>
<path d="M50.6328 39.7618C50.4133 39.7641 50.2207 39.6831 50.101 39.5058C49.9296 39.2523 49.7664 38.9893 49.642 38.7111C49.4894 38.3683 49.6138 38.0724 49.9155 37.8752C50.2266 37.6709 50.5459 37.7167 50.7877 37.9891C51.0202 38.2509 51.201 38.562 51.3078 38.8965C51.4452 39.3286 51.0895 39.7629 50.6328 39.7618Z" fill="white"/>
<defs>
<linearGradient id="paint0_linear_318_53" x1="10.1027" y1="18.8877" x2="64.5695" y2="82.5786" gradientUnits="userSpaceOnUse">
<stop stop-color="#FDBB34"/>
<stop offset="1" stop-color="#FF6F83"/>
</linearGradient>
</defs>
</svg>
