<svg width="83" height="83" viewBox="0 0 83 83" fill="none" xmlns="http://www.w3.org/2000/svg">
<circle cx="41.2893" cy="41.2893" r="40.2893" stroke="url(#paint0_linear_318_54)" stroke-width="2"/>
<path d="M36.0728 52.7336C34.9585 53.2593 33.907 53.7543 32.8234 54.1779C32.486 54.3097 32.1511 54.3872 31.7916 54.2998C30.8902 54.0794 30.4088 53.2212 30.6957 52.2965C31.0084 51.2855 31.3889 50.298 31.7879 49.3179C31.8433 49.1825 31.9479 49.0569 31.9085 48.8746C31.7546 48.8845 31.6044 48.8993 31.4542 48.9042C30.1465 48.9473 29.388 47.7627 30.0037 46.6115C30.6735 45.3604 31.4739 44.1956 32.507 43.2143C32.8357 42.9015 32.704 42.8289 32.3863 42.6934C31.0047 42.1024 29.6515 41.4399 28.2503 40.9019C26.077 40.0658 25.6165 37.3618 26.9894 35.7931C28.121 34.5002 29.1528 33.1199 30.2339 31.7827C31.2522 30.5219 32.502 30.1537 34.051 30.6511C34.9117 30.927 35.7786 31.1892 36.6294 31.4971C36.9791 31.6239 37.1552 31.5574 37.3793 31.257C40.726 26.7811 45.0442 23.6499 50.3881 21.9778C53.5772 20.9792 56.8427 20.6418 60.1697 21.0481C61.2483 21.1799 61.9662 21.8891 62.1177 22.9517C63.4598 32.3282 60.3199 40.0178 53.3199 46.2408C53.0256 46.5019 52.9776 46.6866 53.1278 47.0363C53.5034 47.9093 53.8383 48.7995 54.1781 49.6873C54.6965 51.0405 54.3887 52.3543 53.3187 53.3381C52.0184 54.5338 50.6836 55.6937 49.4117 56.9176C47.7777 58.4887 45.139 57.9174 44.266 55.9842C43.6356 54.5879 42.8734 53.252 42.1789 51.884C42.0521 51.6352 41.9832 51.4936 41.7295 51.7978C40.838 52.8702 39.7471 53.7149 38.5884 54.4808C38.0343 54.8477 37.4568 54.982 36.8584 54.6396C36.2502 54.2912 36.0322 53.7211 36.0741 53.0377C36.079 52.9614 36.0741 52.885 36.0741 52.7373L36.0728 52.7336ZM60.1414 33.1384C60.1869 32.8835 60.0244 32.8146 59.9136 32.721C56.6014 29.9468 53.4578 26.9941 50.4903 23.8555C50.2945 23.6474 50.1308 23.5994 49.8537 23.7028C43.8043 25.9623 39.3112 29.969 36.3327 35.6909C36.2144 35.9163 36.2194 36.0492 36.4164 36.2339C40.4169 39.9821 44.4126 43.7376 48.4008 47.4992C48.6089 47.6963 48.7542 47.6938 48.9881 47.5534C54.4786 44.2375 58.2021 39.5412 60.0675 33.3921C60.0983 33.2899 60.1291 33.1864 60.1438 33.1409L60.1414 33.1384ZM35.5495 37.4283C34.9462 38.9059 34.5017 40.3662 34.2185 41.8758C34.1779 42.0925 34.3084 42.1837 34.429 42.2957C37.1121 44.8211 39.7988 47.3429 42.4757 49.8745C42.6739 50.0616 42.8439 50.0752 43.0877 50.0099C44.3941 49.659 45.6525 49.1837 46.8924 48.6456C47.2852 48.4744 47.2076 48.3747 46.9564 48.1395C43.8979 45.2743 40.8479 42.4004 37.7942 39.5289C37.0604 38.8382 36.3228 38.1511 35.5495 37.4271V37.4283ZM51.8165 23.1044C54.6029 26.0165 57.4891 28.7352 60.5637 31.3333C60.5945 31.2077 60.6142 31.14 60.6265 31.071C61.0858 28.5567 61.1301 26.0374 60.725 23.5132C60.5859 22.6488 60.3987 22.5109 59.5331 22.4407C57.9053 22.309 56.2824 22.3324 54.662 22.5429C53.7213 22.6661 52.788 22.8261 51.8152 23.1032L51.8165 23.1044ZM51.7721 47.5313C51.6896 47.567 51.6589 47.5756 51.6342 47.5928C49.2541 49.2563 46.6856 50.5307 43.8831 51.3139C43.6233 51.3865 43.6356 51.4973 43.7427 51.7017C44.4015 52.9651 45.0356 54.2407 45.7054 55.4991C46.1832 56.398 47.3862 56.6898 48.1508 56.0261C49.6333 54.7406 51.069 53.3985 52.5023 52.0576C52.9185 51.6685 53.0933 51.1095 52.9197 50.5738C52.586 49.5445 52.1612 48.5446 51.7721 47.5313ZM32.8591 31.9083C32.374 31.9071 31.9295 32.0561 31.6241 32.4279C30.3879 33.9351 29.1467 35.441 27.9622 36.9887C27.3391 37.8026 27.6346 38.9613 28.5409 39.3873C29.8719 40.0128 31.2338 40.5743 32.5796 41.1715C32.7778 41.2602 32.8419 41.2134 32.88 41.0077C32.9391 40.6913 33.0278 40.381 33.1091 40.0695C33.7432 37.6499 34.7147 35.372 36.0137 33.2357C36.1689 32.9808 36.1775 32.8651 35.8561 32.7752C35.3107 32.6225 34.78 32.4156 34.2357 32.2568C33.7814 32.1238 33.3467 31.9083 32.8591 31.9083ZM32.0735 52.9158C32.9896 52.5119 33.7912 52.1709 34.583 51.8052C35.2085 51.5158 35.8155 51.187 36.4398 50.894C37.0911 50.5874 37.516 50.8152 37.628 51.5257C37.6637 51.751 37.6403 51.9849 37.6539 52.214C37.6748 52.5772 37.5233 52.9318 37.5824 53.2938C37.7105 53.3332 37.7819 53.263 37.8546 53.215C38.8864 52.5403 39.8271 51.7621 40.6558 50.8435C40.9082 50.5628 40.8959 50.4039 40.6213 50.1478C38.4776 48.1506 36.3425 46.1436 34.2185 44.1254C33.9747 43.894 33.8429 43.9334 33.6299 44.1439C32.704 45.0563 31.9664 46.1054 31.3372 47.237C31.3077 47.2887 31.2867 47.3466 31.3606 47.4254C31.6118 47.386 31.8802 47.3355 32.1511 47.3047C32.4245 47.2739 32.7015 47.2407 32.9749 47.2481C33.7912 47.269 34.0757 47.716 33.7629 48.4683C33.4809 49.1467 33.1805 49.819 32.9108 50.5024C32.6153 51.2523 32.3186 52.0034 32.0748 52.917L32.0735 52.9158Z" fill="white"/>
<path d="M22.1354 56.1024C21.7094 56.0864 21.4816 55.935 21.3683 55.6616C21.2476 55.3735 21.2919 55.0903 21.5148 54.8514C21.9445 54.3934 22.3743 53.9341 22.804 53.4773C23.7903 52.4282 24.7741 51.3766 25.7665 50.3312C26.1187 49.9594 26.4918 49.9126 26.8242 50.1687C27.2146 50.4692 27.2195 50.9272 26.8107 51.3643C25.7234 52.5291 24.6288 53.6878 23.5366 54.8477C23.2325 55.1716 22.9271 55.4942 22.6205 55.8155C22.4568 55.9867 22.2696 56.1135 22.1366 56.1024H22.1354Z" fill="white"/>
<path d="M24.4955 61.6409C24.1298 61.647 23.9156 61.4882 23.7937 61.2148C23.6644 60.9255 23.6902 60.6447 23.9156 60.4046C24.3355 59.9564 24.7566 59.5095 25.1764 59.0625C25.9965 58.1907 26.8116 57.314 27.6403 56.4484C28.0393 56.0322 28.5182 56.0372 28.8273 56.441C29.0662 56.7526 29.0588 57.0776 28.7953 57.3621C27.5295 58.7214 26.2563 60.0722 24.9831 61.4242C24.8415 61.5744 24.6568 61.652 24.4968 61.6409H24.4955Z" fill="white"/>
<path d="M31.7495 61.9857C31.4713 61.9573 31.2521 61.8096 31.108 61.5498C30.975 61.3109 30.996 61.077 31.1437 60.8541C31.2028 60.7654 31.2767 60.6854 31.3494 60.6078C32.5376 59.3433 33.727 58.0799 34.914 56.8154C35.1209 56.595 35.3388 56.4103 35.6713 56.4718C36.2648 56.5826 36.5049 57.2562 36.0813 57.7142C34.8426 59.0576 33.5854 60.3825 32.3344 61.7135C32.183 61.8748 32.002 61.9832 31.7508 61.9857H31.7495Z" fill="white"/>
<path d="M43.544 34.8278C43.5551 31.7385 45.9204 29.362 48.9605 29.3854C52.1201 29.4101 54.4399 31.7557 54.4313 34.919C54.4227 38.0157 52.0758 40.3909 49.0332 40.3811C45.8502 40.3712 43.5329 38.0268 43.544 34.8266V34.8278ZM44.9378 34.8475C44.9378 37.0036 46.887 38.938 49.0529 38.9318C51.1584 38.9257 53.0485 37.0097 53.0374 34.8931C53.0276 32.7518 51.1018 30.8445 48.9458 30.8384C46.8328 30.8322 44.9378 32.7284 44.9366 34.8475H44.9378Z" fill="white"/>
<path d="M36.5867 40.7085C36.9389 40.6851 37.11 40.786 37.2578 40.9252C37.9523 41.5753 38.6492 42.223 39.3313 42.8854C39.6798 43.2228 39.6909 43.6291 39.4003 43.9444C39.0986 44.2719 38.7058 44.2953 38.3426 43.9653C37.6284 43.3139 36.929 42.6465 36.2297 41.9792C36.0006 41.76 35.9144 41.4891 36.0499 41.1837C36.1779 40.8944 36.402 40.7282 36.5855 40.7097L36.5867 40.7085Z" fill="white"/>
<path d="M40.5324 44.2277C40.5903 44.2437 40.6752 44.2486 40.7343 44.2892C41.2921 44.6722 41.8031 45.1167 42.1984 45.6609C42.4089 45.9503 42.2956 46.2852 42.0235 46.5253C41.7489 46.7679 41.4214 46.8134 41.1419 46.5795C40.7073 46.2175 40.2997 45.821 39.9044 45.4147C39.6914 45.1955 39.6976 44.9111 39.8416 44.6451C39.9832 44.3816 40.2172 44.2523 40.5312 44.2264L40.5324 44.2277Z" fill="white"/>
<path d="M43.1753 46.7938C43.6014 46.7987 43.9154 47.1127 43.8981 47.5178C43.8809 47.9266 43.5521 48.2504 43.1593 48.2455C42.7407 48.2406 42.4279 47.8958 42.4439 47.455C42.4575 47.0659 42.7629 46.7888 43.1753 46.7938Z" fill="white"/>
<defs>
<linearGradient id="paint0_linear_318_54" x1="10.1027" y1="18.8877" x2="64.5695" y2="82.5786" gradientUnits="userSpaceOnUse">
<stop stop-color="#FDBB34"/>
<stop offset="1" stop-color="#FF6F83"/>
</linearGradient>
</defs>
</svg>
