<svg width="83" height="83" viewBox="0 0 83 83" fill="none" xmlns="http://www.w3.org/2000/svg">
<circle cx="41.2893" cy="41.2893" r="40.2893" stroke="url(#paint0_linear_318_55)" stroke-width="2"/>
<path d="M38.2228 17C38.7554 17.29 38.9334 17.7317 38.9241 18.3381C38.8951 20.3064 38.9162 22.276 38.9123 24.2457C38.9109 24.8877 38.5827 25.3083 38.0487 25.3781C37.4911 25.452 36.9558 25.0327 36.9506 24.4421C36.9321 22.276 36.9413 20.11 36.9453 17.9439C36.9453 17.4733 37.2815 17.2281 37.6308 17H38.2228Z" fill="white"/>
<path d="M49.2933 37.3685C50.2477 37.7166 50.9346 38.2307 51.4554 38.9624C51.8746 39.5504 52.195 40.1977 52.1791 40.9188C52.1673 41.4488 52.3742 41.5029 52.8172 41.5424C54.4586 41.6874 55.7941 42.8094 56.2146 44.3347C56.3847 44.9517 56.3728 45.5726 56.2146 46.187C56.1553 46.415 56.2014 46.5047 56.4387 46.5521C59.7887 47.2258 60.5348 51.2877 58.2277 53.5539C54.5192 57.1939 50.8964 60.9222 47.2314 64.6083C43.4292 68.4315 37.349 68.5264 33.4546 64.7902C31.7223 63.1291 30.0242 61.4271 28.3829 59.6763C27.0184 58.2196 26.1891 56.4543 25.8411 54.4781C25.7422 53.9178 26.0534 53.4432 26.5846 53.3219C27.0553 53.2151 27.5945 53.5289 27.7474 54.0167C27.8199 54.2513 27.8529 54.4979 27.9149 54.7365C28.3077 56.2684 29.0658 57.5986 30.1706 58.7219C31.6577 60.2353 33.1527 61.7409 34.6675 63.2253C37.8763 66.3683 42.7476 66.3301 45.9051 63.1502C49.5556 59.4746 53.1995 55.7912 56.8527 52.1182C57.3022 51.666 57.5804 51.1506 57.6041 50.5098C57.6331 49.7188 57.3247 49.0926 56.6299 48.7037C55.9562 48.3253 55.2733 48.3675 54.622 48.7828C54.4151 48.9146 54.2292 49.0821 54.0261 49.2205C53.599 49.5119 53.0545 49.4538 52.7262 49.0926C52.3887 48.7222 52.3663 48.1882 52.7144 47.7901C53.0387 47.4196 53.4052 47.0861 53.7453 46.7288C54.452 45.9853 54.5377 44.978 53.9694 44.2121C53.4157 43.4646 52.4639 43.2985 51.5331 43.7823C51.1324 43.9906 50.808 44.2885 50.4982 44.6089C50.3268 44.7856 50.1581 44.9701 49.9643 45.1191C49.5543 45.4355 49.0124 45.392 48.6644 45.0374C48.315 44.6814 48.2729 44.1343 48.609 43.7375C48.8951 43.4 49.226 43.0994 49.5398 42.7856C50.017 42.3071 50.2873 41.7362 50.2306 41.0573C50.1686 40.3071 49.8496 39.6875 49.1126 39.3909C48.3533 39.0863 47.6506 39.2762 47.0376 39.7705C46.6935 40.0474 46.3995 40.3875 46.0844 40.6987C45.5254 41.2497 44.9796 41.3091 44.5314 40.8648C44.0963 40.4337 44.1504 39.8496 44.6843 39.3104C48.6446 35.3158 52.605 31.3212 56.5679 27.3306C57.1098 26.7848 57.525 26.1836 57.4183 25.3741C57.3128 24.5739 56.8606 24.0044 56.0986 23.7354C55.297 23.4533 54.5693 23.6352 53.9694 24.2377C52.3083 25.9028 50.6538 27.5758 48.9966 29.2461C44.6513 33.6231 40.3061 38 35.9608 42.3769C35.291 43.0519 34.91 43.1139 34.0913 42.6182C32.7717 41.8193 31.9846 40.5695 31.3109 39.2366C30.7243 38.0738 30.3841 36.8161 29.9306 35.6019C28.9854 33.0707 27.2557 31.3937 24.6282 30.6805C24.3118 30.5948 23.9163 30.4261 23.6856 30.6634C23.4377 30.9178 23.7634 31.2408 23.8794 31.5084C24.7904 33.6178 25.8951 35.6441 26.6242 37.8313C27.4284 40.2425 28.019 42.696 27.957 45.2628C27.936 46.1131 27.2807 46.6022 26.5886 46.3069C26.205 46.1435 25.9756 45.8481 25.9888 45.4276C26.1021 42.0157 24.9934 38.8965 23.6882 35.83C23.1741 34.6224 22.6059 33.4359 22.0258 32.2573C21.5604 31.3133 21.3521 30.3786 22.0416 29.4755C22.7601 28.5329 23.799 28.4683 24.8246 28.7148C28.2853 29.5454 30.6333 31.6574 31.808 35.0258C32.3116 36.4694 32.8244 37.9051 33.5732 39.2458C33.6128 39.317 33.6523 39.3895 33.6932 39.4607C33.9476 39.9103 34.2482 40.4416 34.6938 40.5747C35.1935 40.725 35.4413 40.0777 35.7617 39.756C41.3475 34.1544 46.9149 28.5342 52.4942 22.926C54.3228 21.0882 57.1203 21.2438 58.6219 23.2476C59.844 24.8784 59.6516 26.997 58.1025 28.5791C56.0182 30.7056 53.9194 32.8149 51.8166 34.923C51.0058 35.7364 50.1713 36.5234 49.2959 37.3725L49.2933 37.3685Z" fill="white"/>
<path d="M30.0826 17.9901C30.403 17.9954 30.7089 18.1681 30.8974 18.5095C31.8835 20.3051 32.8696 22.1007 33.8399 23.9042C34.1221 24.4302 33.9415 24.9958 33.4603 25.2634C32.9804 25.5297 32.4082 25.3729 32.1155 24.8429C31.1241 23.0499 30.1367 21.2556 29.1756 19.4469C28.8157 18.7706 29.2771 18.0085 30.0826 17.9888V17.9901Z" fill="white"/>
<path d="M42.9488 25.3848C42.1432 25.398 41.6581 24.6452 41.989 23.9623C42.2883 23.3426 42.6376 22.7481 42.9672 22.1443C43.6185 20.9498 44.2697 19.7554 44.9223 18.5623C45.1385 18.1668 45.4708 17.9479 45.9282 17.9994C46.3369 18.0455 46.6138 18.2854 46.7548 18.677C46.8563 18.9604 46.8023 19.2294 46.6639 19.4825C45.6936 21.2676 44.7193 23.0513 43.745 24.835C43.5578 25.1765 43.2665 25.365 42.9488 25.3835V25.3848Z" fill="white"/>
<path d="M26.5954 48.8618C27.1452 48.8579 27.5684 49.2679 27.5776 49.815C27.5868 50.3766 27.1373 50.8341 26.5875 50.8222C26.0641 50.8117 25.6146 50.3516 25.6172 49.8308C25.6198 49.2995 26.0588 48.8658 26.5967 48.8618H26.5954Z" fill="white"/>
<defs>
<linearGradient id="paint0_linear_318_55" x1="10.1027" y1="18.8877" x2="64.5695" y2="82.5786" gradientUnits="userSpaceOnUse">
<stop stop-color="#FDBB34"/>
<stop offset="1" stop-color="#FF6F83"/>
</linearGradient>
</defs>
</svg>
