<svg width="83" height="83" viewBox="0 0 83 83" fill="none" xmlns="http://www.w3.org/2000/svg">
<path d="M31.1545 24.6247C30.9042 24.732 30.636 24.7856 30.3499 24.7856C29.8851 24.7856 29.4739 24.6068 29.1163 24.2493C28.7945 23.8559 28.6336 23.409 28.6336 22.9084C28.6336 22.1575 29.009 21.639 29.7599 21.353C32.7278 20.1372 35.5526 19.5293 38.2343 19.5293C41.524 19.5293 44.3488 20.0657 46.7088 21.1384C49.0687 22.2111 50.8387 24.1062 52.0187 26.8238C52.6623 28.3256 52.9841 30.1313 52.9841 32.241C52.9841 33.8858 52.7517 35.3339 52.2868 36.5854C51.8578 37.8369 51.1247 39.2493 50.0878 40.8226L44.5633 49.2434H51.7505C52.3226 49.2434 52.7517 49.4222 53.0377 49.7798C53.3596 50.1374 53.5205 50.5486 53.5205 51.0134C53.5205 51.514 53.3596 51.9431 53.0377 52.3007C52.7517 52.6582 52.3226 52.837 51.7505 52.837H41.2916C40.7552 52.837 40.3082 52.6582 39.9507 52.3007C39.5931 51.9431 39.4143 51.514 39.4143 51.0134C39.4143 50.6916 39.5216 50.3698 39.7361 50.048L40.9698 48.2244C43.3655 44.6129 45.207 41.806 46.4942 39.8036C47.7815 37.7654 48.5681 36.353 48.8542 35.5664C49.176 34.6009 49.3369 33.4925 49.3369 32.241C49.3369 30.7749 49.1224 29.5056 48.6933 28.4328C47.8709 26.3947 46.6194 25.0002 44.9388 24.2493C43.294 23.4984 41.2737 23.1229 38.878 23.1229C36.1962 23.1229 33.6217 23.6235 31.1545 24.6247ZM32.4953 32.241C32.245 32.384 31.959 32.4555 31.6372 32.4555C31.1366 32.4555 30.7075 32.2588 30.3499 31.8655C30.0281 31.4722 29.8672 31.0431 29.8672 30.5783C29.8672 29.8631 30.2069 29.3446 30.8863 29.0228C31.959 28.4507 33.2284 27.968 34.6944 27.5747C36.1962 27.1813 37.6265 26.9847 38.9852 26.9847C40.5943 26.9847 41.9531 27.3423 43.0615 28.0574C44.17 28.7725 44.8494 29.9525 45.0997 31.5973C45.1354 31.7404 45.1533 31.9549 45.1533 32.241C45.1533 33.707 44.4561 35.5127 43.0615 37.6582L30.5645 56.6451H52.0187C52.5908 56.6451 53.0199 56.8239 53.3059 57.1815C53.6277 57.5391 53.7886 57.9681 53.7886 58.4687C53.7886 58.9693 53.6277 59.3984 53.3059 59.756C53.0199 60.1136 52.5908 60.2923 52.0187 60.2923H27.3463C26.81 60.2923 26.363 60.1136 26.0054 59.756C25.6479 59.3984 25.4691 58.9693 25.4691 58.4687C25.4691 58.1112 25.5764 57.7715 25.7909 57.4497L40.0579 35.7273C40.1652 35.5485 40.3798 35.2267 40.7016 34.7618C41.0234 34.297 41.2558 33.85 41.3988 33.4209C41.5776 32.9561 41.6313 32.5449 41.5597 32.1873C41.4167 31.6152 41.1485 31.204 40.7552 30.9537C40.3976 30.7034 39.8076 30.5783 38.9852 30.5783C37.9483 30.5783 36.8041 30.7571 35.5526 31.1146C34.3368 31.4364 33.3178 31.8119 32.4953 32.241Z" fill="white"/>
<circle cx="41.2893" cy="41.2893" r="40.2893" stroke="url(#paint0_linear_318_58)" stroke-width="2"/>
<defs>
<linearGradient id="paint0_linear_318_58" x1="10.1027" y1="18.8877" x2="64.5695" y2="82.5786" gradientUnits="userSpaceOnUse">
<stop stop-color="#FDBB34"/>
<stop offset="1" stop-color="#FF6F83"/>
</linearGradient>
</defs>
</svg>
