<svg width="595" height="339" viewBox="0 0 595 339" fill="none" xmlns="http://www.w3.org/2000/svg">
<path d="M240.407 26.0591L242.297 26.1243L245.425 25.2119L255.462 25.994L255.592 24.7557L255.527 19.933L255.396 19.542L255.331 19.0206L255.462 18.2386L255.657 17.7824L256.569 16.8048L256.83 16.0879L256.7 12.0473L255.396 10.0922L253.963 8.98429L253.572 7.42018L254.028 6.96398L254.419 6.57295L254.94 6.31227L255.462 6.2471L256.7 5.26953L257.091 4.68299L257.352 3.50991L259.046 5.00884L263.478 6.05158L264.195 7.42018L265.237 8.39774L266.476 9.04946L267.453 8.85394L267.779 7.42018L268.561 5.59539L269.669 4.74816L270.712 5.26953L271.103 7.42018L271.95 9.44048L276.903 9.50565L279.249 10.6787L280.683 12.9597L280.552 14.3283L279.836 15.7621L279.184 18.3038L279.445 20.3241L280.292 22.7354L281.269 25.0816L282.247 26.5805L284.007 27.9491L285.571 28.666L286.874 29.7739L287.917 32.3807L287.982 33.7493L287.721 35.1179L287.656 36.4213L288.243 37.5944L289.285 37.9203L289.481 37.9854L290.458 36.9427L291.241 35.4438L292.088 34.4662L295.737 34.1404L313.268 40.3316L314.246 40.9833L315.419 42.7429L316.071 43.3946L316.983 43.6553L324.282 41.8957L326.433 42.0912L326.629 43.0688L326.889 43.916L331.321 51.4759L331.907 51.6714L334.319 51.6062L339.532 49.6511L340.966 49.8466L342.139 50.9545L343.312 53.1703L344.029 54.9951L344.551 56.9503L344.29 58.5795L343.052 59.6223L342.921 60.0785L342.791 60.4695L342.856 60.9257L343.052 61.3167L346.766 60.665L352.241 55.3861L355.89 55.7772L358.693 57.8626L359.996 58.5144L361.495 58.1885L362.538 56.8199L363.189 55.0603L363.841 53.6917L364.949 53.431L368.142 53.4962L371.01 54.2131L373.682 55.7772L381.177 63.6629L381.959 66.3349L379.222 67.4428L379.547 68.4855V68.9417L379.287 69.3328L378.896 70.1148L378.765 70.8317L378.635 71.8744L378.7 72.7217L378.896 72.6565L378.179 73.6992L376.354 75.4589L375.507 76.6319L374.008 76.9578L371.206 76.1757L369.837 76.6319L369.185 78.3916L367.882 79.5646L366.318 80.477L364.949 81.5849L364.493 81.7805L363.711 82.3018L363.124 82.367L363.581 83.8659L363.711 84.257L362.016 83.8659L361.3 86.0818L362.147 88.5583L364.949 89.0145L366.122 92.5989L366.513 93.3809L367.621 94.2933L368.273 94.163L368.925 93.5764L369.902 93.2506H373.943L374.79 93.5113L375.377 94.8147L375.442 96.0529L375.377 97.3564L375.572 98.5295L377.136 100.615L381.046 102.049L383.002 103.417L384.24 105.177L386.521 109.283L387.759 110.977L388.867 112.997L391.539 115.8L392.451 118.341L393.494 123.034L394.276 124.728L395.84 126.749L398.838 129.551L402.553 131.441L406.072 131.18L408.809 127.531L410.764 126.097L411.807 124.598L412.72 122.708L414.349 120.362L416.304 118.667L418.064 118.407L419.758 118.537L420.866 118.211L421.844 118.016L422.691 117.234L424.125 115.213L425.167 114.496L425.949 114.431L427.579 115.018H428.361L428.556 114.496V112.802L428.817 112.476H430.055L430.576 112.802L431.033 113.649L431.945 115.083L432.988 115.474L433.574 114.301L433.379 112.476L432.271 110.977L432.141 107.653L431.228 105.177L429.599 103.417L427.448 102.179L425.819 100.485L424.972 97.8126L424.32 94.8799L423.342 92.4034L420.54 88.2324L420.475 86.3425L422.886 84.8435L424.907 85.1042L427.383 86.6031L428.686 87.3852L430.707 87.1245L439.7 89.6662L440.678 90.2527L442.698 92.0123L443.806 92.5989H444.979L447.651 92.0123L448.694 92.3382L448.499 92.7292L448.824 94.2282L449.346 95.9878L449.867 97.226L450.714 98.1384L453.843 100.094L455.928 100.68L460.034 100.55L461.859 101.332L460.229 101.984L460.49 102.505L460.751 102.961L461.142 103.352L461.533 103.743L461.402 105.503L461.598 107.262L462.185 108.631L463.358 109.543L464.335 107.002L466.29 106.871L468.18 108.435L468.962 110.977L469.418 111.303L469.875 111.368L470.396 111.303L470.852 110.977L473.394 107.849L477.565 107.458L485.385 108.826L487.406 108.305L488.905 107.067L491.512 103.482L492.033 102.375L492.228 101.397L492.815 101.071L494.314 101.592L494.77 102.049L496.399 104.265L496.595 104.59L496.66 104.916L496.595 105.372L496.399 105.763L495.487 108.37L495.291 109.609L495.487 110.977L496.399 111.89L497.768 114.431L496.921 116.517L495.161 118.081L491.446 120.297L489.1 121.209L484.864 121.405L483.886 121.861L483.3 123.229L483.43 124.207L487.732 129.616L489.1 130.268L489.947 130.072L490.729 129.681L491.642 129.421L492.815 129.746L495.161 130.92L496.399 131.18L496.465 131.311V131.441V131.571L496.399 131.702L495.617 132.353L495.291 133.135L495.552 133.917L496.399 134.699L497.377 135.873L497.963 137.371L498.485 139.066L499.137 140.695L500.114 142.064L505.784 147.734L508.977 148.451L512.171 147.473L514.778 145.127L516.342 144.736L519.861 144.605L522.728 143.758L523.185 143.172L523.054 141.803L522.403 140.891L521.686 140.826L520.969 141.086L520.513 140.891L520.122 137.762L521.555 138.154L522.794 138.479L527.942 141.803L527.356 144.345L528.464 145.648L534.068 146.691L535.437 147.473L538.174 149.819L539.217 150.275L541.302 150.732L542.345 151.514L542.671 152.23L543.323 154.381L543.779 155.294L545.538 156.727L546.777 156.467L549.253 154.316L549.123 154.055L548.992 153.925L548.862 153.86H548.667L552.186 153.404L555.575 154.642L562.092 158.226H564.177L567.566 156.01L568.87 156.792L569.456 159.269L569.195 161.354L569.587 162.984L571.933 164.287L569.521 167.09L569.587 170.739L571.085 174.845L573.171 179.081L574.018 183.056L574.54 184.034L575.713 184.881L578.45 185.142L579.688 185.468L580.861 186.445L582.556 188.466L583.664 189.117L584.902 189.052L586.27 188.4L587.639 188.205L589.008 189.183L589.333 190.225L589.92 194.918L590.311 196.156L591.354 198.567L591.745 199.74L593.048 205.54L593.244 208.343L592.918 210.559L589.333 210.689L587.704 211.276L584.055 214.599L581.643 214.73L579.102 213.948L576.234 212.514L575.582 212.383L574.996 212.514L572.519 213.882L568.609 213.296L566.849 214.404L566.393 215.512L566.133 218.053L565.741 219.226L564.959 219.943L562.092 221.507L558.377 226.135L556.422 227.373L553.88 226.851L553.62 233.238L551.599 234.802L548.341 237.409L536.545 241.971L533.938 244.448L531.852 247.902L530.223 251.942L529.115 256.374L528.789 259.958V260.74L528.92 266.736L528.333 269.669L526.508 272.797L523.902 275.208L521.034 276.512L516.342 276.186L514.191 276.512L512.366 277.685L511.193 280.031L510.672 281.986L509.955 286.092L509.238 287.982L507.674 289.546L505.979 289.611L504.155 289.285L502.004 289.676L500.57 290.85L497.507 296.063L496.008 297.367L479.129 304.014L475.936 303.493L473.264 300.69L471.96 300.039L469.875 300.69L468.311 301.733L466.616 302.841L465.052 303.102L455.081 298.018L450.845 296.976L446.934 297.758L442.242 301.212L441.46 302.45L440.939 304.992L439.635 306.556L436.637 309.228L434.487 312.877L430.055 325.651L429.078 327.541L427.644 329.235L427.448 331.712L424.45 328.193L423.212 319.46L421.127 316.527L419.693 316.397L416.304 317.57L414.675 317.83L413.045 317.179L409.852 315.093L408.549 314.637L405.16 314.767L403.791 314.507L402.618 313.725L402.031 312.16L401.706 310.205L400.989 308.641L399.294 307.924L397.73 307.729L392.451 306.23L390.952 305.252L390.17 304.992L389.388 305.122L387.759 305.774L386.847 305.839L384.37 305.448L382.806 306.491L378.374 314.116L377.397 315.028L376.028 315.419L375.572 315.224L374.399 314.311L372.574 314.572L372.444 314.702L360.192 312.877L352.11 313.334L347.483 311.313L338.685 304.861L338.555 304.21V303.297L338.099 302.711L336.6 303.102L336.469 301.733L335.818 301.147L334.84 301.081L333.732 301.342L334.645 300.169H333.928L333.276 299.908L332.298 299.191L330.604 299.061L330.017 298.8L329.626 298.149L329.235 296.519L328.714 296.128H326.042L325.325 296.324L322.197 297.953L320.698 298.409H318.678L316.722 297.953L309.945 294.108L304.731 292.088L302.711 291.306L298.344 287.526L296.454 286.418L292.609 285.114L288.373 282.964L286.418 282.442L282.312 282.377L281.856 282.051L281.53 281.4L281.074 280.878H280.422L280.031 281.4L279.836 283.225L279.51 283.876L278.337 285.375L277.88 285.636L271.168 287.461L269.473 287.395L270.06 285.505V283.681L269.669 281.921L269.082 280.031L262.239 279.445L257.352 277.75L255.462 278.011L255.136 278.271L255.005 278.663V279.314L255.136 280.031L253.897 282.833V286.679L254.223 290.719V294.434L252.399 302.776L251.747 304.47L251.616 305.383L251.747 306.23L252.138 307.273L252.529 308.12L252.724 308.381L251.747 310.662L249.922 310.857L245.425 308.967L240.863 308.381L239.495 308.837L238.973 310.14L238.647 311.769L237.8 313.334L237.344 315.875L232.717 319.916L231.088 322.588L230.762 326.172V330.213L230.371 333.667L229.98 334.058L228.611 335.427L227.177 335.361L226.46 334.449L225.939 333.211L225.027 331.973L224.44 331.842L223.072 332.298L222.42 332.233L222.159 331.712L222.094 330.799L222.029 329.952L221.442 329.496L220.074 329.561L217.467 330.865L216.163 331.125L215.121 330.865L211.667 329.04L209.516 326.563L208.278 327.476L206.323 332.689L204.889 334.123L200.327 336.078L198.567 337.512L197.915 337.773L197.068 337.838L188.335 334.775L175.953 333.406L172.955 332.168L172.238 331.451L170.739 329.561L170.348 328.844L169.957 327.085L170.087 326.694L170.609 326.498L171.195 325.26L171.456 325.064L171.847 325.13L172.238 324.999L172.434 324.217L172.173 323.37L171.651 322.979L171.065 322.783L170.609 322.327L170.087 321.219L168.588 319.003L167.872 318.156L161.941 314.898L160.051 313.334L158.422 312.095L156.792 311.183L153.273 310.205L151.514 308.446L147.277 299.973L145.257 296.78L144.019 296.063L140.76 295.607L139.131 294.76L137.632 293.326L136.264 291.241L135.286 288.764L135.09 286.288L133.526 286.418L132.027 285.636L130.528 284.398L128.964 283.485L127.531 283.159L126.944 283.029L125.771 283.616L124.924 285.114L124.011 287.395L121.991 286.418L119.189 284.398L116.712 282.051L115.409 280.031L115.344 276.251L114.366 273.905L110.651 270.125L107.979 266.541L106.937 265.628L105.177 264.977L99.898 264.716L97.4215 263.282L95.9878 261.001L94.8799 258.394L86.6683 247.185L85.5604 246.598V246.533L82.758 243.209L82.367 241.971L82.2367 240.668L81.7153 239.56L80.2164 238.973L77.7399 236.301L76.5016 235.324L75.0027 234.476L71.6789 233.564L70.4407 233.955L70.8317 235.715L69.2024 235.91L64.0539 235.128L62.2943 234.542L60.9257 233.108L58.0582 226.656L56.2985 224.831L52.2579 222.876L50.4983 221.442L49.5207 219.487L49.0645 217.336L48.869 212.905L48.7387 210.624L48.087 210.102L47.1746 210.233L46.1318 209.907L45.2194 208.929L44.5026 207.952L43.9812 206.714L43.3947 205.084L43.0688 203.52L42.6778 200.522L42.0261 199.023L41.1137 198.046L39.0282 196.873L38.1158 195.765L38.181 195.439L38.572 194.396L37.9203 194.07L37.6596 193.875L38.4416 192.246L38.3765 190.421L37.6596 188.987L36.4213 188.335L33.4886 186.967L32.1852 186.054L30.8818 184.881L29.1222 182.274L28.2098 180.515L27.7536 179.081L28.7963 177.061L32.3807 175.562L33.8145 174.128L34.0752 171.912L34.1404 169.045L34.6617 167.09L36.4213 167.676L37.0731 165.591L39.0934 161.811L39.8102 159.725L40.0709 157.118L39.4844 156.141L38.2461 155.619L34.6617 153.534L34.7921 152.035L35.3786 150.21L35.1831 148.19L33.6842 146.821L30.4908 146.43L29.1222 145.127H29.057L15.7621 138.023L15.5014 137.176V135.938L15.3059 134.504L14.5238 133.135L13.2204 132.093L11.8518 131.245L10.6136 130.137L9.83151 128.052L9.76634 126.032L10.4181 122.903L10.1574 120.818L9.50565 119.189L8.46292 117.69L6.31227 115.344L2.01097 112.606L1.09858 110.977L2.20648 109.348L3.11888 108.696L3.70542 108.11L3.83576 106.35L3.50991 104.395L2.8582 103.157L0.837891 101.071L2.98854 101.201L7.22466 101.527L8.91911 102.7L9.44048 104.004L9.37531 106.35L9.76634 107.393L10.7439 108.305L11.9822 108.696L14.5238 108.761L15.1104 109.087L15.4362 109.609L15.3711 110.195L14.98 110.977H14.8497L14.7193 111.042L14.589 111.107L14.5238 111.238L14.2631 111.499L14.198 111.759L14.2631 112.085L14.5238 112.411L16.0228 113.91L16.4138 114.431L16.8048 115.344L16.9352 116.126L17.0003 116.843L18.1082 120.622L18.9555 121.991L20.4544 122.187L21.6927 121.274V120.101L21.1713 118.602L20.9106 116.908L21.1713 114.496L21.6275 113.193L23.3871 110.977L23.6478 108.826L24.3647 107.719L25.3422 107.067L26.3198 106.024L29.057 101.071L29.9694 100.094L32.5111 98.6598L33.5538 97.7474L33.8797 97.5519H34.6617L35.0527 97.3564L35.2483 96.9002L35.1831 96.3136L35.0527 95.8574V95.5967L35.2483 94.945L35.4438 94.2933L35.7696 93.5764L36.4213 93.0551L38.8327 90.9696L42.3519 89.9269L48.9342 89.4055L53.6265 90.2527L54.7344 90.1224L55.712 89.21L57.6671 86.1469L58.775 85.039L60.2088 84.5177L61.6426 84.4525L63.2067 84.648L63.7281 84.4525L64.9663 83.6704L65.7484 83.4749L66.4652 83.6704L74.6116 88.6234L77.6095 88.8189L78.3264 88.1021L80.2164 86.2121L81.4546 84.7783L82.0412 82.2367L82.6277 76.6319L83.3446 76.1106L84.0614 75.9802L84.7783 76.1106L85.4952 76.6319L86.2121 76.8275L87.0593 76.9578L87.9066 76.8926L88.6886 76.6319L91.1651 75.7847L95.7923 76.0454L97.9429 74.4161L99.1812 72.1351L102.114 64.3146L103.808 64.5101L105.242 65.4877L106.676 66.1394L108.566 65.1618L109.478 62.3595L109.934 61.5122L113.258 59.1661L113.78 58.5795L113.845 58.1233L114.105 57.9278L115.148 58.3188L115.604 58.8402L116.843 60.9257L117.429 61.6426L119.384 62.6201L121.013 62.2291L122.512 60.8605L124.011 58.9706L124.859 58.4492L125.445 57.7975L125.51 56.9503L124.989 55.8423L126.423 54.7344L127.596 53.2355L127.987 51.4107L126.944 49.2601L130.528 47.1094L134.504 46.3274L142.39 46.3925L144.084 46.0667L147.408 44.8284L149.298 44.6329L153.338 45.0891L154.902 44.7632L157.444 43.134H157.966L158.487 42.9385L159.073 42.0912L159.139 41.3743L158.878 40.3968L158.813 39.2237L159.139 37.8551L159.986 36.8775H160.703L161.55 37.1382L162.658 36.9427L163.57 36.291L164.874 34.5314L165.851 33.8797L167.546 33.4886L170.739 33.9448L172.434 33.8145L186.119 27.5581L187.162 26.5153L188.791 24.104L189.704 23.1264L192.897 22.4747L199.74 23.0613L202.347 20.8454L202.868 17.3914L200.522 16.0228L197.264 15.1104L195.048 12.8294L195.113 11.3956L195.895 10.8742L196.025 10.6136L194.266 9.89668L191.268 9.50565L190.29 8.85394L191.268 7.42018L192.506 3.37957L194.592 1.22892L197.394 0.837891L200.653 1.88063L201.304 2.46717L201.761 3.24922L202.347 4.03128L203.259 4.55265H204.237L206.714 3.44474L209.907 3.64025L210.885 3.11888L211.667 1.22892L212.123 2.402L212.318 3.24922L212.644 4.03128L213.426 5.20436L214.534 5.98641L216.88 6.57295L217.988 7.42018L219.031 8.7236L219.683 9.76634L220.008 11.1349L219.813 13.2204L219.161 14.9149L218.119 16.9352L217.597 18.6296L218.64 19.4117L223.463 17.3914H224.505L225.027 18.9555L224.505 20.8454L223.006 24.2995L222.68 26.8412L223.137 27.8187L226.135 28.7311L227.438 29.3829L230.762 31.9897L234.02 32.7066L235.91 32.7718L237.344 32.3807L238.191 31.4032L239.038 29.7739L240.407 26.0591Z" fill="#0B2239" stroke="white" stroke-width="1.67583" stroke-linecap="round" stroke-linejoin="round"/>
<circle cx="209.479" cy="139.094" r="10.8929" fill="url(#paint0_linear_318_61)"/>
<circle cx="391.306" cy="228.751" r="10.8929" fill="url(#paint1_linear_318_61)"/>
<circle cx="337.68" cy="134.904" r="10.8929" fill="url(#paint2_linear_318_61)"/>
<circle cx="484.315" cy="201.099" r="10.8929" fill="url(#paint3_linear_318_61)"/>
<path d="M194.891 113.118C194.891 113.681 194.755 114.209 194.483 114.702C194.222 115.194 193.805 115.591 193.232 115.893C192.668 116.195 191.955 116.346 191.09 116.346H189.325V120.388H187.214V109.86H191.09C191.904 109.86 192.598 110.001 193.171 110.282C193.744 110.564 194.172 110.951 194.453 111.444C194.745 111.936 194.891 112.495 194.891 113.118ZM190.999 114.641C191.583 114.641 192.015 114.511 192.296 114.249C192.578 113.978 192.719 113.601 192.719 113.118C192.719 112.092 192.146 111.58 190.999 111.58H189.325V114.641H190.999ZM198.501 113.329C198.773 112.887 199.125 112.54 199.557 112.288C200 112.037 200.502 111.911 201.065 111.911V114.128H200.507C199.844 114.128 199.341 114.284 198.999 114.596C198.667 114.908 198.501 115.451 198.501 116.225V120.388H196.39V112.032H198.501V113.329ZM201.945 116.18C201.945 115.335 202.111 114.586 202.442 113.932C202.784 113.279 203.242 112.776 203.815 112.424C204.398 112.072 205.047 111.896 205.76 111.896C206.384 111.896 206.927 112.022 207.389 112.273C207.862 112.525 208.239 112.841 208.521 113.224V112.032H210.647V120.388H208.521V119.166C208.249 119.558 207.872 119.885 207.389 120.146C206.917 120.398 206.369 120.523 205.745 120.523C205.042 120.523 204.398 120.342 203.815 119.98C203.242 119.618 202.784 119.111 202.442 118.457C202.111 117.794 201.945 117.034 201.945 116.18ZM208.521 116.21C208.521 115.697 208.42 115.26 208.219 114.898C208.018 114.526 207.746 114.244 207.404 114.053C207.063 113.852 206.696 113.751 206.303 113.751C205.911 113.751 205.549 113.847 205.218 114.038C204.886 114.229 204.614 114.511 204.403 114.883C204.202 115.245 204.101 115.677 204.101 116.18C204.101 116.682 204.202 117.125 204.403 117.507C204.614 117.879 204.886 118.166 205.218 118.367C205.559 118.568 205.921 118.668 206.303 118.668C206.696 118.668 207.063 118.573 207.404 118.382C207.746 118.181 208.018 117.899 208.219 117.537C208.42 117.165 208.521 116.723 208.521 116.21ZM217.415 111.911C218.049 111.911 218.612 112.052 219.104 112.334C219.597 112.605 219.979 113.012 220.251 113.555C220.532 114.088 220.673 114.732 220.673 115.486V120.388H218.561V115.772C218.561 115.109 218.396 114.601 218.064 114.249C217.732 113.887 217.279 113.706 216.706 113.706C216.123 113.706 215.661 113.887 215.319 114.249C214.987 114.601 214.821 115.109 214.821 115.772V120.388H212.709V109.227H214.821V113.073C215.093 112.711 215.454 112.429 215.907 112.228C216.359 112.017 216.862 111.911 217.415 111.911ZM222.138 116.18C222.138 115.335 222.304 114.586 222.636 113.932C222.978 113.279 223.435 112.776 224.008 112.424C224.591 112.072 225.24 111.896 225.954 111.896C226.577 111.896 227.12 112.022 227.583 112.273C228.055 112.525 228.432 112.841 228.714 113.224V112.032H230.841V120.388H228.714V119.166C228.442 119.558 228.065 119.885 227.583 120.146C227.11 120.398 226.562 120.523 225.939 120.523C225.235 120.523 224.591 120.342 224.008 119.98C223.435 119.618 222.978 119.111 222.636 118.457C222.304 117.794 222.138 117.034 222.138 116.18ZM228.714 116.21C228.714 115.697 228.613 115.26 228.412 114.898C228.211 114.526 227.94 114.244 227.598 114.053C227.256 113.852 226.889 113.751 226.497 113.751C226.105 113.751 225.743 113.847 225.411 114.038C225.079 114.229 224.808 114.511 224.596 114.883C224.395 115.245 224.295 115.677 224.295 116.18C224.295 116.682 224.395 117.125 224.596 117.507C224.808 117.879 225.079 118.166 225.411 118.367C225.753 118.568 226.115 118.668 226.497 118.668C226.889 118.668 227.256 118.573 227.598 118.382C227.94 118.181 228.211 117.899 228.412 117.537C228.613 117.165 228.714 116.723 228.714 116.21Z" fill="white"/>
<path d="M318.921 153.459V163.987H316.809V159.507H312.3V163.987H310.188V153.459H312.3V157.788H316.809V153.459H318.921ZM323.111 156.928C323.382 156.486 323.734 156.139 324.167 155.887C324.609 155.636 325.112 155.51 325.675 155.51V157.727H325.117C324.453 157.727 323.95 157.883 323.608 158.195C323.277 158.507 323.111 159.05 323.111 159.824V163.987H320.999V155.631H323.111V156.928ZM326.554 159.779C326.554 158.934 326.72 158.185 327.052 157.531C327.394 156.878 327.851 156.375 328.424 156.023C329.007 155.671 329.656 155.495 330.37 155.495C330.993 155.495 331.536 155.621 331.999 155.872C332.471 156.124 332.848 156.44 333.13 156.822V155.631H335.257V163.987H333.13V162.765C332.858 163.157 332.481 163.484 331.999 163.745C331.526 163.997 330.978 164.122 330.355 164.122C329.651 164.122 329.007 163.941 328.424 163.579C327.851 163.217 327.394 162.71 327.052 162.056C326.72 161.392 326.554 160.633 326.554 159.779ZM333.13 159.809C333.13 159.296 333.029 158.859 332.828 158.497C332.627 158.125 332.356 157.843 332.014 157.652C331.672 157.451 331.305 157.35 330.913 157.35C330.521 157.35 330.159 157.446 329.827 157.637C329.495 157.828 329.224 158.109 329.012 158.481C328.811 158.843 328.711 159.276 328.711 159.779C328.711 160.281 328.811 160.724 329.012 161.106C329.224 161.478 329.495 161.764 329.827 161.966C330.169 162.167 330.531 162.267 330.913 162.267C331.305 162.267 331.672 162.172 332.014 161.981C332.356 161.78 332.627 161.498 332.828 161.136C333.029 160.764 333.13 160.322 333.13 159.809ZM336.776 159.779C336.776 158.934 336.942 158.185 337.274 157.531C337.616 156.878 338.078 156.375 338.661 156.023C339.244 155.671 339.893 155.495 340.607 155.495C341.15 155.495 341.668 155.616 342.16 155.857C342.653 156.088 343.045 156.4 343.337 156.792V152.826H345.479V163.987H343.337V162.75C343.075 163.162 342.708 163.494 342.236 163.745C341.763 163.997 341.215 164.122 340.592 164.122C339.888 164.122 339.244 163.941 338.661 163.579C338.078 163.217 337.616 162.71 337.274 162.056C336.942 161.392 336.776 160.633 336.776 159.779ZM343.352 159.809C343.352 159.296 343.251 158.859 343.05 158.497C342.849 158.125 342.578 157.843 342.236 157.652C341.894 157.451 341.527 157.35 341.135 157.35C340.743 157.35 340.381 157.446 340.049 157.637C339.717 157.828 339.446 158.109 339.234 158.481C339.033 158.843 338.933 159.276 338.933 159.779C338.933 160.281 339.033 160.724 339.234 161.106C339.446 161.478 339.717 161.764 340.049 161.966C340.391 162.167 340.753 162.267 341.135 162.267C341.527 162.267 341.894 162.172 342.236 161.981C342.578 161.78 342.849 161.498 343.05 161.136C343.251 160.764 343.352 160.322 343.352 159.809ZM355.308 159.628C355.308 159.929 355.288 160.201 355.248 160.442H349.14C349.19 161.045 349.401 161.518 349.773 161.86C350.145 162.202 350.603 162.373 351.146 162.373C351.93 162.373 352.488 162.036 352.82 161.362H355.097C354.856 162.167 354.393 162.83 353.71 163.353C353.026 163.866 352.186 164.122 351.191 164.122C350.386 164.122 349.662 163.946 349.019 163.594C348.385 163.232 347.888 162.725 347.526 162.071C347.174 161.418 346.998 160.663 346.998 159.809C346.998 158.944 347.174 158.185 347.526 157.531C347.878 156.878 348.37 156.375 349.004 156.023C349.637 155.671 350.366 155.495 351.191 155.495C351.985 155.495 352.694 155.666 353.317 156.008C353.951 156.35 354.439 156.837 354.78 157.471C355.132 158.094 355.308 158.813 355.308 159.628ZM353.121 159.024C353.111 158.481 352.915 158.049 352.533 157.727C352.151 157.396 351.683 157.23 351.13 157.23C350.608 157.23 350.165 157.391 349.803 157.712C349.451 158.024 349.235 158.461 349.155 159.024H353.121ZM356.307 159.809C356.307 158.944 356.482 158.19 356.834 157.546C357.186 156.893 357.674 156.39 358.297 156.038C358.921 155.676 359.635 155.495 360.439 155.495C361.475 155.495 362.329 155.757 363.003 156.279C363.687 156.792 364.144 157.516 364.376 158.451H362.098C361.978 158.089 361.771 157.808 361.48 157.607C361.198 157.396 360.846 157.29 360.424 157.29C359.821 157.29 359.343 157.511 358.991 157.954C358.639 158.386 358.463 159.004 358.463 159.809C358.463 160.603 358.639 161.221 358.991 161.664C359.343 162.096 359.821 162.312 360.424 162.312C361.279 162.312 361.837 161.93 362.098 161.166H364.376C364.144 162.071 363.687 162.79 363.003 163.323C362.319 163.856 361.465 164.122 360.439 164.122C359.635 164.122 358.921 163.946 358.297 163.594C357.674 163.232 357.186 162.73 356.834 162.086C356.482 161.433 356.307 160.673 356.307 159.809ZM314.761 182.987L310.93 178.296V182.987H308.818V172.459H310.93V177.18L314.761 172.459H317.31L312.966 177.678L317.43 182.987H314.761ZM320.931 175.928C321.202 175.486 321.554 175.139 321.987 174.887C322.429 174.636 322.932 174.51 323.495 174.51V176.727H322.937C322.273 176.727 321.77 176.883 321.429 177.195C321.097 177.507 320.931 178.05 320.931 178.824V182.987H318.819V174.631H320.931V175.928ZM324.374 178.779C324.374 177.934 324.54 177.185 324.872 176.531C325.214 175.878 325.671 175.375 326.244 175.023C326.828 174.671 327.476 174.495 328.19 174.495C328.813 174.495 329.356 174.621 329.819 174.872C330.291 175.124 330.669 175.44 330.95 175.822V174.631H333.077V182.987H330.95V181.765C330.679 182.157 330.302 182.484 329.819 182.745C329.346 182.997 328.798 183.122 328.175 183.122C327.471 183.122 326.828 182.941 326.244 182.579C325.671 182.217 325.214 181.71 324.872 181.056C324.54 180.392 324.374 179.633 324.374 178.779ZM330.95 178.809C330.95 178.296 330.85 177.859 330.648 177.497C330.447 177.125 330.176 176.843 329.834 176.652C329.492 176.451 329.125 176.35 328.733 176.35C328.341 176.35 327.979 176.446 327.647 176.637C327.315 176.828 327.044 177.109 326.833 177.481C326.631 177.843 326.531 178.276 326.531 178.779C326.531 179.281 326.631 179.724 326.833 180.106C327.044 180.478 327.315 180.764 327.647 180.966C327.989 181.167 328.351 181.267 328.733 181.267C329.125 181.267 329.492 181.172 329.834 180.981C330.176 180.78 330.447 180.498 330.648 180.136C330.85 179.764 330.95 179.322 330.95 178.809ZM330.664 172.459L327.195 174.043V172.534L330.664 170.74V172.459ZM337.251 171.826V182.987H335.139V171.826H337.251ZM343.047 183.122C342.243 183.122 341.519 182.946 340.875 182.594C340.232 182.232 339.724 181.725 339.352 181.071C338.99 180.418 338.809 179.663 338.809 178.809C338.809 177.954 338.995 177.2 339.367 176.546C339.749 175.893 340.267 175.39 340.92 175.038C341.574 174.676 342.303 174.495 343.107 174.495C343.912 174.495 344.641 174.676 345.294 175.038C345.948 175.39 346.461 175.893 346.833 176.546C347.215 177.2 347.406 177.954 347.406 178.809C347.406 179.663 347.21 180.418 346.818 181.071C346.436 181.725 345.913 182.232 345.249 182.594C344.596 182.946 343.861 183.122 343.047 183.122ZM343.047 181.282C343.429 181.282 343.786 181.192 344.118 181.011C344.46 180.82 344.731 180.538 344.932 180.166C345.133 179.794 345.234 179.342 345.234 178.809C345.234 178.014 345.023 177.406 344.601 176.984C344.188 176.551 343.681 176.335 343.077 176.335C342.474 176.335 341.966 176.551 341.554 176.984C341.152 177.406 340.951 178.014 340.951 178.809C340.951 179.603 341.147 180.216 341.539 180.649C341.941 181.071 342.444 181.282 343.047 181.282ZM352.439 181.041L354.55 174.631H356.798L353.706 182.987H351.142L348.065 174.631H350.327L352.439 181.041ZM365.751 178.628C365.751 178.929 365.731 179.201 365.691 179.442H359.582C359.633 180.045 359.844 180.518 360.216 180.86C360.588 181.202 361.045 181.373 361.588 181.373C362.373 181.373 362.931 181.036 363.263 180.362H365.54C365.299 181.167 364.836 181.83 364.152 182.353C363.469 182.866 362.629 183.122 361.634 183.122C360.829 183.122 360.105 182.946 359.462 182.594C358.828 182.232 358.331 181.725 357.969 181.071C357.617 180.418 357.441 179.663 357.441 178.809C357.441 177.944 357.617 177.185 357.969 176.531C358.32 175.878 358.813 175.375 359.447 175.023C360.08 174.671 360.809 174.495 361.634 174.495C362.428 174.495 363.137 174.666 363.76 175.008C364.394 175.35 364.881 175.837 365.223 176.471C365.575 177.094 365.751 177.813 365.751 178.628ZM363.564 178.024C363.554 177.481 363.358 177.049 362.976 176.727C362.594 176.396 362.126 176.23 361.573 176.23C361.05 176.23 360.608 176.391 360.246 176.712C359.894 177.024 359.678 177.461 359.597 178.024H363.564ZM363.247 172.429L359.778 174.013V172.504L363.247 170.709V172.429Z" fill="white"/>
<path d="M380.196 253.244C380.789 253.355 381.277 253.651 381.659 254.134C382.041 254.617 382.232 255.17 382.232 255.793C382.232 256.356 382.091 256.854 381.81 257.286C381.538 257.708 381.141 258.04 380.618 258.282C380.095 258.523 379.477 258.644 378.763 258.644H374.223V248.116H378.567C379.281 248.116 379.894 248.232 380.407 248.463C380.93 248.694 381.322 249.016 381.584 249.428C381.855 249.84 381.991 250.308 381.991 250.831C381.991 251.444 381.825 251.957 381.493 252.369C381.171 252.782 380.739 253.073 380.196 253.244ZM376.335 252.46H378.265C378.768 252.46 379.155 252.349 379.427 252.128C379.698 251.897 379.834 251.57 379.834 251.148C379.834 250.725 379.698 250.398 379.427 250.167C379.155 249.936 378.768 249.82 378.265 249.82H376.335V252.46ZM378.461 256.924C378.974 256.924 379.371 256.803 379.653 256.562C379.945 256.321 380.09 255.979 380.09 255.537C380.09 255.084 379.94 254.732 379.638 254.481C379.336 254.219 378.929 254.089 378.416 254.089H376.335V256.924H378.461ZM386.026 251.585C386.298 251.143 386.65 250.796 387.082 250.544C387.525 250.293 388.027 250.167 388.59 250.167V252.384H388.032C387.369 252.384 386.866 252.54 386.524 252.852C386.192 253.164 386.026 253.707 386.026 254.481V258.644H383.915V250.288H386.026V251.585ZM394.643 250.167C395.638 250.167 396.443 250.484 397.056 251.117C397.67 251.741 397.976 252.616 397.976 253.742V258.644H395.865V254.028C395.865 253.365 395.699 252.857 395.367 252.505C395.035 252.143 394.583 251.962 394.01 251.962C393.426 251.962 392.964 252.143 392.622 252.505C392.29 252.857 392.124 253.365 392.124 254.028V258.644H390.013V250.288H392.124V251.329C392.406 250.967 392.763 250.685 393.195 250.484C393.638 250.273 394.12 250.167 394.643 250.167ZM403.695 258.779C402.89 258.779 402.166 258.603 401.523 258.251C400.879 257.889 400.371 257.382 399.999 256.728C399.637 256.075 399.456 255.32 399.456 254.466C399.456 253.611 399.642 252.857 400.014 252.203C400.396 251.55 400.914 251.047 401.568 250.695C402.221 250.333 402.95 250.152 403.755 250.152C404.559 250.152 405.288 250.333 405.942 250.695C406.595 251.047 407.108 251.55 407.48 252.203C407.862 252.857 408.053 253.611 408.053 254.466C408.053 255.32 407.857 256.075 407.465 256.728C407.083 257.382 406.56 257.889 405.897 258.251C405.243 258.603 404.509 258.779 403.695 258.779ZM403.695 256.939C404.077 256.939 404.434 256.849 404.765 256.668C405.107 256.477 405.379 256.195 405.58 255.823C405.781 255.451 405.881 254.999 405.881 254.466C405.881 253.671 405.67 253.063 405.248 252.641C404.836 252.208 404.328 251.992 403.725 251.992C403.121 251.992 402.614 252.208 402.201 252.641C401.799 253.063 401.598 253.671 401.598 254.466C401.598 255.26 401.794 255.873 402.186 256.306C402.588 256.728 403.091 256.939 403.695 256.939Z" fill="white"/>
<path d="M455.487 182.499C454.502 182.499 453.597 182.268 452.772 181.805C451.948 181.343 451.294 180.704 450.812 179.89C450.329 179.065 450.088 178.135 450.088 177.099C450.088 176.074 450.329 175.154 450.812 174.339C451.294 173.515 451.948 172.871 452.772 172.409C453.597 171.946 454.502 171.715 455.487 171.715C456.483 171.715 457.388 171.946 458.202 172.409C459.027 172.871 459.675 173.515 460.148 174.339C460.63 175.154 460.872 176.074 460.872 177.099C460.872 178.135 460.63 179.065 460.148 179.89C459.675 180.704 459.027 181.343 458.202 181.805C457.377 182.268 456.473 182.499 455.487 182.499ZM455.487 180.614C456.121 180.614 456.679 180.473 457.161 180.191C457.644 179.9 458.021 179.487 458.293 178.955C458.564 178.422 458.7 177.803 458.7 177.099C458.7 176.396 458.564 175.782 458.293 175.259C458.021 174.726 457.644 174.319 457.161 174.038C456.679 173.756 456.121 173.615 455.487 173.615C454.854 173.615 454.291 173.756 453.798 174.038C453.315 174.319 452.938 174.726 452.667 175.259C452.395 175.782 452.26 176.396 452.26 177.099C452.26 177.803 452.395 178.422 452.667 178.955C452.938 179.487 453.315 179.9 453.798 180.191C454.291 180.473 454.854 180.614 455.487 180.614ZM464.554 171.232V182.393H462.443V171.232H464.554ZM470.351 182.529C469.546 182.529 468.822 182.353 468.179 182.001C467.535 181.639 467.027 181.131 466.655 180.478C466.293 179.824 466.112 179.07 466.112 178.215C466.112 177.361 466.298 176.607 466.67 175.953C467.053 175.3 467.57 174.797 468.224 174.445C468.878 174.083 469.607 173.902 470.411 173.902C471.215 173.902 471.944 174.083 472.598 174.445C473.251 174.797 473.764 175.3 474.136 175.953C474.518 176.607 474.709 177.361 474.709 178.215C474.709 179.07 474.513 179.824 474.121 180.478C473.739 181.131 473.216 181.639 472.553 182.001C471.899 182.353 471.165 182.529 470.351 182.529ZM470.351 180.689C470.733 180.689 471.09 180.598 471.421 180.418C471.763 180.226 472.035 179.945 472.236 179.573C472.437 179.201 472.538 178.748 472.538 178.215C472.538 177.421 472.326 176.813 471.904 176.39C471.492 175.958 470.984 175.742 470.381 175.742C469.777 175.742 469.27 175.958 468.857 176.39C468.455 176.813 468.254 177.421 468.254 178.215C468.254 179.01 468.45 179.623 468.842 180.056C469.245 180.478 469.747 180.689 470.351 180.689ZM486.635 173.917C487.661 173.917 488.485 174.234 489.109 174.867C489.742 175.491 490.059 176.365 490.059 177.492V182.393H487.947V177.778C487.947 177.125 487.781 176.627 487.45 176.285C487.118 175.933 486.665 175.757 486.092 175.757C485.519 175.757 485.061 175.933 484.72 176.285C484.388 176.627 484.222 177.125 484.222 177.778V182.393H482.11V177.778C482.11 177.125 481.944 176.627 481.613 176.285C481.281 175.933 480.828 175.757 480.255 175.757C479.672 175.757 479.209 175.933 478.868 176.285C478.536 176.627 478.37 177.125 478.37 177.778V182.393H476.258V174.038H478.37V175.048C478.641 174.696 478.988 174.42 479.411 174.219C479.843 174.018 480.315 173.917 480.828 173.917C481.482 173.917 482.065 174.058 482.578 174.339C483.091 174.611 483.488 175.003 483.769 175.516C484.041 175.033 484.433 174.646 484.946 174.354C485.469 174.063 486.032 173.917 486.635 173.917ZM495.773 182.529C494.968 182.529 494.244 182.353 493.601 182.001C492.957 181.639 492.45 181.131 492.078 180.478C491.716 179.824 491.535 179.07 491.535 178.215C491.535 177.361 491.721 176.607 492.093 175.953C492.475 175.3 492.993 174.797 493.646 174.445C494.3 174.083 495.029 173.902 495.833 173.902C496.638 173.902 497.366 174.083 498.02 174.445C498.674 174.797 499.186 175.3 499.558 175.953C499.941 176.607 500.132 177.361 500.132 178.215C500.132 179.07 499.936 179.824 499.543 180.478C499.161 181.131 498.638 181.639 497.975 182.001C497.321 182.353 496.587 182.529 495.773 182.529ZM495.773 180.689C496.155 180.689 496.512 180.598 496.844 180.418C497.186 180.226 497.457 179.945 497.658 179.573C497.859 179.201 497.96 178.748 497.96 178.215C497.96 177.421 497.749 176.813 497.326 176.39C496.914 175.958 496.406 175.742 495.803 175.742C495.2 175.742 494.692 175.958 494.28 176.39C493.877 176.813 493.676 177.421 493.676 178.215C493.676 179.01 493.872 179.623 494.265 180.056C494.667 180.478 495.169 180.689 495.773 180.689ZM509.569 174.038V182.393H507.442V181.338C507.171 181.7 506.814 181.986 506.371 182.197C505.939 182.398 505.466 182.499 504.953 182.499C504.3 182.499 503.722 182.363 503.219 182.092C502.716 181.81 502.319 181.403 502.027 180.87C501.746 180.327 501.605 179.683 501.605 178.939V174.038H503.717V178.638C503.717 179.301 503.883 179.814 504.214 180.176C504.546 180.528 504.999 180.704 505.572 180.704C506.155 180.704 506.612 180.528 506.944 180.176C507.276 179.814 507.442 179.301 507.442 178.638V174.038H509.569ZM511.109 178.215C511.109 177.351 511.285 176.597 511.637 175.953C511.989 175.3 512.477 174.797 513.1 174.445C513.723 174.083 514.437 173.902 515.242 173.902C516.277 173.902 517.132 174.163 517.806 174.686C518.489 175.199 518.947 175.923 519.178 176.858H516.901C516.78 176.496 516.574 176.215 516.282 176.013C516.001 175.802 515.649 175.697 515.227 175.697C514.623 175.697 514.146 175.918 513.794 176.36C513.442 176.793 513.266 177.411 513.266 178.215C513.266 179.01 513.442 179.628 513.794 180.071C514.146 180.503 514.623 180.719 515.227 180.719C516.081 180.719 516.639 180.337 516.901 179.573H519.178C518.947 180.478 518.489 181.197 517.806 181.73C517.122 182.263 516.267 182.529 515.242 182.529C514.437 182.529 513.723 182.353 513.1 182.001C512.477 181.639 511.989 181.136 511.637 180.493C511.285 179.839 511.109 179.08 511.109 178.215Z" fill="white"/>
<defs>
<linearGradient id="paint0_linear_318_61" x1="209.479" y1="128.201" x2="209.479" y2="149.987" gradientUnits="userSpaceOnUse">
<stop stop-color="#FDBD32"/>
<stop offset="1" stop-color="#FF6F86"/>
</linearGradient>
<linearGradient id="paint1_linear_318_61" x1="391.306" y1="217.858" x2="391.306" y2="239.643" gradientUnits="userSpaceOnUse">
<stop stop-color="#FDBD32"/>
<stop offset="1" stop-color="#FF6F86"/>
</linearGradient>
<linearGradient id="paint2_linear_318_61" x1="337.68" y1="124.011" x2="337.68" y2="145.797" gradientUnits="userSpaceOnUse">
<stop stop-color="#FDBD32"/>
<stop offset="1" stop-color="#FF6F86"/>
</linearGradient>
<linearGradient id="paint3_linear_318_61" x1="484.315" y1="190.207" x2="484.315" y2="211.992" gradientUnits="userSpaceOnUse">
<stop stop-color="#FDBD32"/>
<stop offset="1" stop-color="#FF6F86"/>
</linearGradient>
</defs>
</svg>
