<svg width="83" height="83" viewBox="0 0 83 83" fill="none" xmlns="http://www.w3.org/2000/svg">
<path d="M30.0315 58.7369C29.3164 58.4151 28.9588 57.8787 28.9588 57.1278C28.9588 56.6272 29.1018 56.1982 29.3879 55.8406C29.7097 55.4473 30.1209 55.2506 30.6215 55.2506C30.9076 55.2506 31.1757 55.3042 31.426 55.4115C33.6787 56.3054 35.842 56.7524 37.9159 56.7524C39.9541 56.7524 41.7777 56.3412 43.3868 55.5188C44.9958 54.6606 46.2473 53.5343 47.1412 52.1397C48.0352 50.7452 48.4821 49.2077 48.4821 47.5271C48.4821 46.3829 48.2676 45.2565 47.8385 44.1481C47.5882 43.4329 47.1234 42.6284 46.444 41.7345C46.1937 41.4126 45.9791 41.1087 45.8003 40.8226C45.6573 40.5008 45.5858 40.2148 45.5858 39.9645C45.5858 39.6069 45.7467 39.2493 46.0685 38.8918C47.6418 37.1754 48.4285 35.1373 48.4285 32.7773C48.4285 31.1325 48.0173 29.6128 47.1949 28.2183C46.3725 26.788 45.1567 25.6438 43.5477 24.7856C41.9743 23.8917 40.115 23.4447 37.9696 23.4447C36.9684 23.4447 35.8957 23.552 34.7514 23.7666C34.1436 23.9096 33.4463 24.1062 32.6596 24.3565C31.6942 24.6784 30.9791 24.8393 30.5142 24.8393C29.7991 24.8393 29.2985 24.4817 29.0124 23.7666C28.9409 23.4805 28.9052 23.2838 28.9052 23.1766C28.9052 22.819 29.0124 22.4793 29.227 22.1575C29.4415 21.8357 29.7097 21.6033 30.0315 21.4602C32.7848 20.3518 35.4129 19.7975 37.9159 19.7975C40.6335 19.7975 43.0649 20.3875 45.2104 21.5675C47.3558 22.7117 49.0364 24.2672 50.2521 26.2338C51.4678 28.2004 52.0757 30.328 52.0757 32.6164C52.0757 34.2255 51.7897 35.7809 51.2175 37.2827C50.8242 38.3197 50.3236 39.2493 49.7157 40.0718C51.2891 42.3244 52.0757 44.7738 52.0757 47.4198C52.0757 49.6725 51.5036 51.7822 50.3594 53.7488C49.2151 55.7154 47.5703 57.3066 45.4249 58.5224C43.3152 59.7381 40.8659 60.346 38.0768 60.346C36.9326 60.346 35.6096 60.203 34.1078 59.9169C32.749 59.6666 31.3903 59.2733 30.0315 58.7369ZM32.4451 32.2946C32.1948 32.4019 31.9266 32.4555 31.6406 32.4555C31.14 32.4555 30.7109 32.2767 30.3533 31.9192C30.0315 31.5258 29.8706 31.0789 29.8706 30.5783C29.8706 29.8631 30.246 29.3268 30.9969 28.9692C32.1054 28.3971 33.2496 27.9501 34.4296 27.6283C35.6096 27.3065 37.0041 27.1813 38.6132 27.2529C40.3653 27.3244 41.7062 27.8965 42.6359 28.9692C43.6013 30.0419 44.084 31.2934 44.084 32.7237C44.084 34.2255 43.5834 35.5306 42.5822 36.6391C41.6168 37.7118 40.2759 38.2481 38.5596 38.2481C38.345 38.2481 37.8265 38.266 37.0041 38.3018C36.1817 38.3018 35.5202 38.1588 35.0196 37.8727C34.5548 37.5866 34.3223 37.1039 34.3223 36.4245C34.3223 35.6021 34.5726 35.1015 35.0732 34.9227C35.6096 34.7082 36.3963 34.6009 37.4332 34.6009C38.4702 34.6009 39.2389 34.4937 39.7395 34.2791C40.2759 34.0646 40.5441 33.5461 40.5441 32.7237C40.5441 32.1516 40.3474 31.7046 39.9541 31.3828C39.5608 31.061 39.0602 30.8822 38.4523 30.8464C37.2365 30.7749 36.1638 30.8822 35.2342 31.1683C34.3045 31.4186 33.3748 31.794 32.4451 32.2946ZM30.836 51.1743C30.1567 50.8167 29.817 50.2983 29.817 49.6189C29.817 49.1183 29.9779 48.6713 30.2997 48.278C30.6573 47.8847 31.0863 47.688 31.5869 47.688C31.873 47.688 32.1948 47.7774 32.5524 47.9562C33.0887 48.2422 33.8754 48.5462 34.9123 48.868C35.9493 49.1898 36.9326 49.3507 37.8623 49.3507C38.8635 49.3507 39.5965 49.1183 40.0613 48.6534C40.4189 48.3316 40.5977 47.9204 40.5977 47.4198C40.5977 46.9192 40.401 46.4901 40.0077 46.1326C39.6501 45.775 39.1674 45.5962 38.5596 45.5962C38.345 45.5962 37.8265 45.6141 37.0041 45.6498C36.1817 45.6498 35.5202 45.5068 35.0196 45.2208C34.5548 44.9347 34.3223 44.452 34.3223 43.7726C34.3223 42.9144 34.6442 42.396 35.2878 42.2172C35.9314 42.0026 36.575 41.9132 37.2187 41.949C37.8981 41.949 38.345 41.949 38.5596 41.949C40.2759 41.949 41.6168 42.5032 42.5822 43.6117C43.5834 44.6844 44.084 45.9538 44.084 47.4198C44.084 48.9574 43.5477 50.2625 42.4749 51.3352C41.4022 52.4079 39.8826 52.9443 37.9159 52.9443C36.4856 52.9443 35.252 52.7834 34.2151 52.4616C33.1781 52.1397 32.0518 51.7107 30.836 51.1743Z" fill="white"/>
<circle cx="41.2893" cy="41.2893" r="40.2893" stroke="url(#paint0_linear_318_59)" stroke-width="2"/>
<defs>
<linearGradient id="paint0_linear_318_59" x1="10.1027" y1="18.8877" x2="64.5695" y2="82.5786" gradientUnits="userSpaceOnUse">
<stop stop-color="#FDBB34"/>
<stop offset="1" stop-color="#FF6F83"/>
</linearGradient>
</defs>
</svg>
