<svg width="83" height="83" viewBox="0 0 83 83" fill="none" xmlns="http://www.w3.org/2000/svg">
<path d="M47.5561 58.0933C47.5561 58.5939 47.3773 59.023 47.0198 59.3805C46.6979 59.7381 46.2867 59.9169 45.7861 59.9169C45.2855 59.9169 44.8565 59.7381 44.4989 59.3805C44.1413 59.023 43.9625 58.5939 43.9625 58.0933V24.0347H31.68C31.2152 24.0347 30.804 23.8559 30.4464 23.4984C30.0888 23.1408 29.91 22.7296 29.91 22.2648C29.91 21.7642 30.0709 21.353 30.3928 21.0311C30.7503 20.6736 31.1794 20.4948 31.68 20.4948H45.7861C46.2867 20.4948 46.6979 20.6736 47.0198 21.0311C47.3773 21.353 47.5561 21.7642 47.5561 22.2648V58.0933ZM31.68 31.2219C31.2152 31.2219 30.804 31.0431 30.4464 30.6855C30.0888 30.328 29.91 29.9168 29.91 29.4519C29.91 28.9513 30.0709 28.5222 30.3928 28.1647C30.7503 27.8071 31.1794 27.6283 31.68 27.6283H38.599C39.0996 27.6283 39.5287 27.8071 39.8862 28.1647C40.2438 28.5222 40.4226 28.9513 40.4226 29.4519V58.0933C40.4226 58.5939 40.2438 59.023 39.8862 59.3805C39.5287 59.7381 39.0996 59.9169 38.599 59.9169C38.0984 59.9169 37.6693 59.7381 37.3117 59.3805C36.9899 59.023 36.829 58.5939 36.829 58.0933V31.2219H31.68Z" fill="white"/>
<circle cx="41.2893" cy="41.2893" r="40.2893" stroke="url(#paint0_linear_318_57)" stroke-width="2"/>
<defs>
<linearGradient id="paint0_linear_318_57" x1="10.1027" y1="18.8877" x2="64.5695" y2="82.5786" gradientUnits="userSpaceOnUse">
<stop stop-color="#FDBB34"/>
<stop offset="1" stop-color="#FF6F83"/>
</linearGradient>
</defs>
</svg>
